<mxfile host="Electron" modified="2025-06-03T13:45:40.070Z" agent="Mozilla/5.0 (Windows NT 10.0; Win64; x64) AppleWebKit/537.36 (KHTML, like Gecko) draw.io/21.6.8 Chrome/114.0.5735.289 Electron/25.5.0 Safari/537.36" etag="3caho6QNaXteizGxje8F" version="21.6.8" type="device">
  <diagram name="Page-1" id="CVwvWM-3vdt8yImhIg62">
    <mxGraphModel dx="1553" dy="1272" grid="1" gridSize="10" guides="1" tooltips="1" connect="1" arrows="1" fold="1" page="1" pageScale="1" pageWidth="827" pageHeight="1169" math="0" shadow="0">
      <root>
        <mxCell id="0" />
        <mxCell id="1" parent="0" />
        <mxCell id="Spx9FryGJ42Kt7Lb2Zxw-2" value="" style="shape=image;verticalLabelPosition=bottom;labelBackgroundColor=default;verticalAlign=top;aspect=fixed;imageAspect=0;image=data:image/png,iVBORw0KGgoAAAANSUhEUgAAAEAAAAA4CAMAAAENwT7WAAAAAXNSR0IArs4c6QAAAARnQU1BAACxjwv8YQUAAAHLUExURQAAAEBAQFBQMEhIOEZGM0dHNkpKNUlJN0hIM0tLMkhIOEVFN0ZGNUhINzY2KFBQPFJSPVtbR1BQP1JSPF9fTVBQO15eSlJSPWBgTFxcSWFhTV5eS05OOk9PO19fTVtbSFNTP2NjUF9fTVJSPlBQO1JSPl9fTWdnVFVVP2FhTGRkT2hoVU5OPFBQPltbRFtbSF5eTEtLN1BQOlhYRVpaRl1dRV9fS2JiSIGBbhsbFkxMOVFRP1JSPFJSPVNTPVNTP1VVP1ZWQFZWQldXQVhYQ1lZQltbR1xcRGBgR2FhSGRkSmZmS2dnUWhoVWlpVnR0YYyMeZGRfpmZhgAAAAoKCA4OCg8PCyAgHS4uJzIyLUlJNkpKNktLOE1NOU1NOk5OOU5OOlBQPlFRPFJSPlhYRVhYRl9fSmFhR2NjSWNjUmVlUGZmU2lpTmlpVnFxZnJyY3R0VnR0YXZ2V3Z2Ynd3V3h4WXh4ZHl5Y3l5ZXp6Wnx8Zn9/bICAaYKCbISEcYSEcoaGcYuLfY2NdpGRepGRfpWVfZeXhJubhJ2dhZ6eiqGhjqOjkKWlkqmplrGxlrGxnrKyn7e3nbq6s729qsHBrsPDsMXFssnJtv///2utv6AAAABTdFJOUwAIECAoLzA4PD1ARldqbXN6gYmeo6mpwMDO1trc5Obn6u/z9/r6+vr7+/v7/Pz8/Pz9/f39/f39/f7+/v7+/v7+/v7+/v7+/v7+/v7+/v7+/v7+02AM/AAAAAlwSFlzAAAXEQAAFxEByibzPwAAAolJREFUSEvtlldj0zAQxy8tM+y9KZviQqGsssreYY8WTAHTsjc0BcROWWFjlvtxuZPORoqV2IU+9CG/F8u6u7+lk3wSADQQ+HTvIB41ehGz4SNeAA49fd8FCIibaJpB0RuwcQ2jL9Vj4zsGFfTGZBnU9gTk0/cFzJPh6ALQtDbkLMXgtyiMKHjpOhYe1OkU4SgZHOz4WxGbpAIiZy1R7zwIRKgOn9JB4HhVB3+1tx87Ah4k0hEELvAkGOGGKWNiHY2k8ZdJpMkzJabQu2Iuu+i0qHxK5BKX4AnDIUx7SGHAOQyxOyzIIoMBpgfBBTdO+2nMxQHMrblxTFyR6NAMsNRx7qncmnzrdJwzcojTuMdkR7RScxwbM9kaUsN7V2f5cDYig76ysMbbu1m2IrzXdVZ3C82BZ6VTFIbDA/4/Il6VOHTxEkT0VB0kfXTIWh3yo2lXk32dVkUiivdP/sJF3waQOYaVxcIJ2hR7sA5d5HJjIyfQgSWtiH5wmJDgMBYn6TgraLwxPPw7xlAWoPYHdxns3C+NxAfuMnieYyvAOa6aBjeusBVZon5Gk+1sNKmd/Zk/UJmPLSu1nRAxctmL12l4tDUv6m0CtnJuoejh8pQT+PIuiQSBrtJiXEqhpypQFRjYAuMWNaDAYy6a5XlDAvmO1vV8HG9soujM1KP4l6NAGortXmsbVW3k8K5uvLnW1H2Sb7ePp4SuMsTufTgZFFj18t/A644SqHTlqUSfBU7p4LsUaMaj4T9GsAbDQ4FnvE5puCwj3EZ1sMBQPGhHLf7NqU3k55ars+hszg5T4USmznIjK8OhvTnt4q6YeISNybzfHA+H+Q+fpuX6+Xg4HmhyRqkYwSEaAH8AqcBbZ77mGLsAAAAASUVORK5CYII=;" vertex="1" parent="1">
          <mxGeometry x="10" y="930" width="64" height="56" as="geometry" />
        </mxCell>
        <mxCell id="Spx9FryGJ42Kt7Lb2Zxw-3" value="" style="shape=image;verticalLabelPosition=bottom;labelBackgroundColor=default;verticalAlign=top;aspect=fixed;imageAspect=0;image=data:image/png,iVBORw0KGgoAAAANSUhEUgAAAEAAAAA4CAMAAAENwT7WAAAAAXNSR0IArs4c6QAAAARnQU1BAACxjwv8YQUAAAHLUExURQAAAEBAQFBQMEhIOEZGM0dHNkpKNUlJN0hIM0tLMkhIOEVFN0ZGNUhINzY2KFBQPFJSPVtbR1BQP1JSPF9fTVBQO15eSlJSPWBgTFxcSWFhTV5eS05OOk9PO19fTVtbSFNTP2NjUF9fTVJSPlBQO1JSPl9fTWdnVFVVP2FhTGRkT2hoVU5OPFBQPltbRFtbSF5eTEtLN1BQOlhYRVpaRl1dRV9fS2JiSIGBbhsbFkxMOVFRP1JSPFJSPVNTPVNTP1VVP1ZWQFZWQldXQVhYQ1lZQltbR1xcRGBgR2FhSGRkSmZmS2dnUWhoVWlpVnR0YYyMeZGRfpmZhgAAAAoKCA4OCg8PCyAgHS4uJzIyLUlJNkpKNktLOE1NOU1NOk5OOU5OOlBQPlFRPFJSPlhYRVhYRl9fSmFhR2NjSWNjUmVlUGZmU2lpTmlpVnFxZnJyY3R0VnR0YXZ2V3Z2Ynd3V3h4WXh4ZHl5Y3l5ZXp6Wnx8Zn9/bICAaYKCbISEcYSEcoaGcYuLfY2NdpGRepGRfpWVfZeXhJubhJ2dhZ6eiqGhjqOjkKWlkqmplrGxlrGxnrKyn7e3nbq6s729qsHBrsPDsMXFssnJtv///2utv6AAAABTdFJOUwAIECAoLzA4PD1ARldqbXN6gYmeo6mpwMDO1trc5Obn6u/z9/r6+vr7+/v7/Pz8/Pz9/f39/f39/f7+/v7+/v7+/v7+/v7+/v7+/v7+/v7+/v7+02AM/AAAAAlwSFlzAAAXEQAAFxEByibzPwAAAolJREFUSEvtlldj0zAQxy8tM+y9KZviQqGsssreYY8WTAHTsjc0BcROWWFjlvtxuZPORoqV2IU+9CG/F8u6u7+lk3wSADQQ+HTvIB41ehGz4SNeAA49fd8FCIibaJpB0RuwcQ2jL9Vj4zsGFfTGZBnU9gTk0/cFzJPh6ALQtDbkLMXgtyiMKHjpOhYe1OkU4SgZHOz4WxGbpAIiZy1R7zwIRKgOn9JB4HhVB3+1tx87Ah4k0hEELvAkGOGGKWNiHY2k8ZdJpMkzJabQu2Iuu+i0qHxK5BKX4AnDIUx7SGHAOQyxOyzIIoMBpgfBBTdO+2nMxQHMrblxTFyR6NAMsNRx7qncmnzrdJwzcojTuMdkR7RScxwbM9kaUsN7V2f5cDYig76ysMbbu1m2IrzXdVZ3C82BZ6VTFIbDA/4/Il6VOHTxEkT0VB0kfXTIWh3yo2lXk32dVkUiivdP/sJF3waQOYaVxcIJ2hR7sA5d5HJjIyfQgSWtiH5wmJDgMBYn6TgraLwxPPw7xlAWoPYHdxns3C+NxAfuMnieYyvAOa6aBjeusBVZon5Gk+1sNKmd/Zk/UJmPLSu1nRAxctmL12l4tDUv6m0CtnJuoejh8pQT+PIuiQSBrtJiXEqhpypQFRjYAuMWNaDAYy6a5XlDAvmO1vV8HG9soujM1KP4l6NAGortXmsbVW3k8K5uvLnW1H2Sb7ePp4SuMsTufTgZFFj18t/A644SqHTlqUSfBU7p4LsUaMaj4T9GsAbDQ4FnvE5puCwj3EZ1sMBQPGhHLf7NqU3k55ars+hszg5T4USmznIjK8OhvTnt4q6YeISNybzfHA+H+Q+fpuX6+Xg4HmhyRqkYwSEaAH8AqcBbZ77mGLsAAAAASUVORK5CYII=;" vertex="1" parent="1">
          <mxGeometry x="160" y="930" width="64" height="56" as="geometry" />
        </mxCell>
        <mxCell id="Spx9FryGJ42Kt7Lb2Zxw-4" value="" style="shape=image;verticalLabelPosition=bottom;labelBackgroundColor=default;verticalAlign=top;aspect=fixed;imageAspect=0;image=data:image/png,iVBORw0KGgoAAAANSUhEUgAAAEAAAAA4CAMAAAENwT7WAAAAAXNSR0IArs4c6QAAAARnQU1BAACxjwv8YQUAAAHLUExURQAAAEBAQFBQMEhIOEZGM0dHNkpKNUlJN0hIM0tLMkhIOEVFN0ZGNUhINzY2KFBQPFJSPVtbR1BQP1JSPF9fTVBQO15eSlJSPWBgTFxcSWFhTV5eS05OOk9PO19fTVtbSFNTP2NjUF9fTVJSPlBQO1JSPl9fTWdnVFVVP2FhTGRkT2hoVU5OPFBQPltbRFtbSF5eTEtLN1BQOlhYRVpaRl1dRV9fS2JiSIGBbhsbFkxMOVFRP1JSPFJSPVNTPVNTP1VVP1ZWQFZWQldXQVhYQ1lZQltbR1xcRGBgR2FhSGRkSmZmS2dnUWhoVWlpVnR0YYyMeZGRfpmZhgAAAAoKCA4OCg8PCyAgHS4uJzIyLUlJNkpKNktLOE1NOU1NOk5OOU5OOlBQPlFRPFJSPlhYRVhYRl9fSmFhR2NjSWNjUmVlUGZmU2lpTmlpVnFxZnJyY3R0VnR0YXZ2V3Z2Ynd3V3h4WXh4ZHl5Y3l5ZXp6Wnx8Zn9/bICAaYKCbISEcYSEcoaGcYuLfY2NdpGRepGRfpWVfZeXhJubhJ2dhZ6eiqGhjqOjkKWlkqmplrGxlrGxnrKyn7e3nbq6s729qsHBrsPDsMXFssnJtv///2utv6AAAABTdFJOUwAIECAoLzA4PD1ARldqbXN6gYmeo6mpwMDO1trc5Obn6u/z9/r6+vr7+/v7/Pz8/Pz9/f39/f39/f7+/v7+/v7+/v7+/v7+/v7+/v7+/v7+/v7+02AM/AAAAAlwSFlzAAAXEQAAFxEByibzPwAAAolJREFUSEvtlldj0zAQxy8tM+y9KZviQqGsssreYY8WTAHTsjc0BcROWWFjlvtxuZPORoqV2IU+9CG/F8u6u7+lk3wSADQQ+HTvIB41ehGz4SNeAA49fd8FCIibaJpB0RuwcQ2jL9Vj4zsGFfTGZBnU9gTk0/cFzJPh6ALQtDbkLMXgtyiMKHjpOhYe1OkU4SgZHOz4WxGbpAIiZy1R7zwIRKgOn9JB4HhVB3+1tx87Ah4k0hEELvAkGOGGKWNiHY2k8ZdJpMkzJabQu2Iuu+i0qHxK5BKX4AnDIUx7SGHAOQyxOyzIIoMBpgfBBTdO+2nMxQHMrblxTFyR6NAMsNRx7qncmnzrdJwzcojTuMdkR7RScxwbM9kaUsN7V2f5cDYig76ysMbbu1m2IrzXdVZ3C82BZ6VTFIbDA/4/Il6VOHTxEkT0VB0kfXTIWh3yo2lXk32dVkUiivdP/sJF3waQOYaVxcIJ2hR7sA5d5HJjIyfQgSWtiH5wmJDgMBYn6TgraLwxPPw7xlAWoPYHdxns3C+NxAfuMnieYyvAOa6aBjeusBVZon5Gk+1sNKmd/Zk/UJmPLSu1nRAxctmL12l4tDUv6m0CtnJuoejh8pQT+PIuiQSBrtJiXEqhpypQFRjYAuMWNaDAYy6a5XlDAvmO1vV8HG9soujM1KP4l6NAGortXmsbVW3k8K5uvLnW1H2Sb7ePp4SuMsTufTgZFFj18t/A644SqHTlqUSfBU7p4LsUaMaj4T9GsAbDQ4FnvE5puCwj3EZ1sMBQPGhHLf7NqU3k55ars+hszg5T4USmznIjK8OhvTnt4q6YeISNybzfHA+H+Q+fpuX6+Xg4HmhyRqkYwSEaAH8AqcBbZ77mGLsAAAAASUVORK5CYII=;" vertex="1" parent="1">
          <mxGeometry x="310" y="930" width="64" height="56" as="geometry" />
        </mxCell>
        <mxCell id="Spx9FryGJ42Kt7Lb2Zxw-5" value="" style="shape=image;verticalLabelPosition=bottom;labelBackgroundColor=default;verticalAlign=top;aspect=fixed;imageAspect=0;image=data:image/png,iVBORw0KGgoAAAANSUhEUgAAAEAAAAA4CAMAAAENwT7WAAAAAXNSR0IArs4c6QAAAARnQU1BAACxjwv8YQUAAAHLUExURQAAAEBAQFBQMEhIOEZGM0dHNkpKNUlJN0hIM0tLMkhIOEVFN0ZGNUhINzY2KFBQPFJSPVtbR1BQP1JSPF9fTVBQO15eSlJSPWBgTFxcSWFhTV5eS05OOk9PO19fTVtbSFNTP2NjUF9fTVJSPlBQO1JSPl9fTWdnVFVVP2FhTGRkT2hoVU5OPFBQPltbRFtbSF5eTEtLN1BQOlhYRVpaRl1dRV9fS2JiSIGBbhsbFkxMOVFRP1JSPFJSPVNTPVNTP1VVP1ZWQFZWQldXQVhYQ1lZQltbR1xcRGBgR2FhSGRkSmZmS2dnUWhoVWlpVnR0YYyMeZGRfpmZhgAAAAoKCA4OCg8PCyAgHS4uJzIyLUlJNkpKNktLOE1NOU1NOk5OOU5OOlBQPlFRPFJSPlhYRVhYRl9fSmFhR2NjSWNjUmVlUGZmU2lpTmlpVnFxZnJyY3R0VnR0YXZ2V3Z2Ynd3V3h4WXh4ZHl5Y3l5ZXp6Wnx8Zn9/bICAaYKCbISEcYSEcoaGcYuLfY2NdpGRepGRfpWVfZeXhJubhJ2dhZ6eiqGhjqOjkKWlkqmplrGxlrGxnrKyn7e3nbq6s729qsHBrsPDsMXFssnJtv///2utv6AAAABTdFJOUwAIECAoLzA4PD1ARldqbXN6gYmeo6mpwMDO1trc5Obn6u/z9/r6+vr7+/v7/Pz8/Pz9/f39/f39/f7+/v7+/v7+/v7+/v7+/v7+/v7+/v7+/v7+02AM/AAAAAlwSFlzAAAXEQAAFxEByibzPwAAAolJREFUSEvtlldj0zAQxy8tM+y9KZviQqGsssreYY8WTAHTsjc0BcROWWFjlvtxuZPORoqV2IU+9CG/F8u6u7+lk3wSADQQ+HTvIB41ehGz4SNeAA49fd8FCIibaJpB0RuwcQ2jL9Vj4zsGFfTGZBnU9gTk0/cFzJPh6ALQtDbkLMXgtyiMKHjpOhYe1OkU4SgZHOz4WxGbpAIiZy1R7zwIRKgOn9JB4HhVB3+1tx87Ah4k0hEELvAkGOGGKWNiHY2k8ZdJpMkzJabQu2Iuu+i0qHxK5BKX4AnDIUx7SGHAOQyxOyzIIoMBpgfBBTdO+2nMxQHMrblxTFyR6NAMsNRx7qncmnzrdJwzcojTuMdkR7RScxwbM9kaUsN7V2f5cDYig76ysMbbu1m2IrzXdVZ3C82BZ6VTFIbDA/4/Il6VOHTxEkT0VB0kfXTIWh3yo2lXk32dVkUiivdP/sJF3waQOYaVxcIJ2hR7sA5d5HJjIyfQgSWtiH5wmJDgMBYn6TgraLwxPPw7xlAWoPYHdxns3C+NxAfuMnieYyvAOa6aBjeusBVZon5Gk+1sNKmd/Zk/UJmPLSu1nRAxctmL12l4tDUv6m0CtnJuoejh8pQT+PIuiQSBrtJiXEqhpypQFRjYAuMWNaDAYy6a5XlDAvmO1vV8HG9soujM1KP4l6NAGortXmsbVW3k8K5uvLnW1H2Sb7ePp4SuMsTufTgZFFj18t/A644SqHTlqUSfBU7p4LsUaMaj4T9GsAbDQ4FnvE5puCwj3EZ1sMBQPGhHLf7NqU3k55ars+hszg5T4USmznIjK8OhvTnt4q6YeISNybzfHA+H+Q+fpuX6+Xg4HmhyRqkYwSEaAH8AqcBbZ77mGLsAAAAASUVORK5CYII=;" vertex="1" parent="1">
          <mxGeometry x="460" y="930" width="64" height="56" as="geometry" />
        </mxCell>
        <mxCell id="Spx9FryGJ42Kt7Lb2Zxw-6" value="" style="shape=image;verticalLabelPosition=bottom;labelBackgroundColor=default;verticalAlign=top;aspect=fixed;imageAspect=0;image=data:image/png,iVBORw0KGgoAAAANSUhEUgAAAEAAAAA4CAMAAAENwT7WAAAAAXNSR0IArs4c6QAAAARnQU1BAACxjwv8YQUAAAHLUExURQAAAEBAQFBQMEhIOEZGM0dHNkpKNUlJN0hIM0tLMkhIOEVFN0ZGNUhINzY2KFBQPFJSPVtbR1BQP1JSPF9fTVBQO15eSlJSPWBgTFxcSWFhTV5eS05OOk9PO19fTVtbSFNTP2NjUF9fTVJSPlBQO1JSPl9fTWdnVFVVP2FhTGRkT2hoVU5OPFBQPltbRFtbSF5eTEtLN1BQOlhYRVpaRl1dRV9fS2JiSIGBbhsbFkxMOVFRP1JSPFJSPVNTPVNTP1VVP1ZWQFZWQldXQVhYQ1lZQltbR1xcRGBgR2FhSGRkSmZmS2dnUWhoVWlpVnR0YYyMeZGRfpmZhgAAAAoKCA4OCg8PCyAgHS4uJzIyLUlJNkpKNktLOE1NOU1NOk5OOU5OOlBQPlFRPFJSPlhYRVhYRl9fSmFhR2NjSWNjUmVlUGZmU2lpTmlpVnFxZnJyY3R0VnR0YXZ2V3Z2Ynd3V3h4WXh4ZHl5Y3l5ZXp6Wnx8Zn9/bICAaYKCbISEcYSEcoaGcYuLfY2NdpGRepGRfpWVfZeXhJubhJ2dhZ6eiqGhjqOjkKWlkqmplrGxlrGxnrKyn7e3nbq6s729qsHBrsPDsMXFssnJtv///2utv6AAAABTdFJOUwAIECAoLzA4PD1ARldqbXN6gYmeo6mpwMDO1trc5Obn6u/z9/r6+vr7+/v7/Pz8/Pz9/f39/f39/f7+/v7+/v7+/v7+/v7+/v7+/v7+/v7+/v7+02AM/AAAAAlwSFlzAAAXEQAAFxEByibzPwAAAolJREFUSEvtlldj0zAQxy8tM+y9KZviQqGsssreYY8WTAHTsjc0BcROWWFjlvtxuZPORoqV2IU+9CG/F8u6u7+lk3wSADQQ+HTvIB41ehGz4SNeAA49fd8FCIibaJpB0RuwcQ2jL9Vj4zsGFfTGZBnU9gTk0/cFzJPh6ALQtDbkLMXgtyiMKHjpOhYe1OkU4SgZHOz4WxGbpAIiZy1R7zwIRKgOn9JB4HhVB3+1tx87Ah4k0hEELvAkGOGGKWNiHY2k8ZdJpMkzJabQu2Iuu+i0qHxK5BKX4AnDIUx7SGHAOQyxOyzIIoMBpgfBBTdO+2nMxQHMrblxTFyR6NAMsNRx7qncmnzrdJwzcojTuMdkR7RScxwbM9kaUsN7V2f5cDYig76ysMbbu1m2IrzXdVZ3C82BZ6VTFIbDA/4/Il6VOHTxEkT0VB0kfXTIWh3yo2lXk32dVkUiivdP/sJF3waQOYaVxcIJ2hR7sA5d5HJjIyfQgSWtiH5wmJDgMBYn6TgraLwxPPw7xlAWoPYHdxns3C+NxAfuMnieYyvAOa6aBjeusBVZon5Gk+1sNKmd/Zk/UJmPLSu1nRAxctmL12l4tDUv6m0CtnJuoejh8pQT+PIuiQSBrtJiXEqhpypQFRjYAuMWNaDAYy6a5XlDAvmO1vV8HG9soujM1KP4l6NAGortXmsbVW3k8K5uvLnW1H2Sb7ePp4SuMsTufTgZFFj18t/A644SqHTlqUSfBU7p4LsUaMaj4T9GsAbDQ4FnvE5puCwj3EZ1sMBQPGhHLf7NqU3k55ars+hszg5T4USmznIjK8OhvTnt4q6YeISNybzfHA+H+Q+fpuX6+Xg4HmhyRqkYwSEaAH8AqcBbZ77mGLsAAAAASUVORK5CYII=;" vertex="1" parent="1">
          <mxGeometry x="600" y="930" width="64" height="56" as="geometry" />
        </mxCell>
        <mxCell id="Spx9FryGJ42Kt7Lb2Zxw-7" value="" style="shape=image;verticalLabelPosition=bottom;labelBackgroundColor=default;verticalAlign=top;aspect=fixed;imageAspect=0;image=data:image/png,iVBORw0KGgoAAAANSUhEUgAAAEAAAAA4CAMAAAENwT7WAAAAAXNSR0IArs4c6QAAAARnQU1BAACxjwv8YQUAAAHLUExURQAAAEBAQFBQMEhIOEZGM0dHNkpKNUlJN0hIM0tLMkhIOEVFN0ZGNUhINzY2KFBQPFJSPVtbR1BQP1JSPF9fTVBQO15eSlJSPWBgTFxcSWFhTV5eS05OOk9PO19fTVtbSFNTP2NjUF9fTVJSPlBQO1JSPl9fTWdnVFVVP2FhTGRkT2hoVU5OPFBQPltbRFtbSF5eTEtLN1BQOlhYRVpaRl1dRV9fS2JiSIGBbhsbFkxMOVFRP1JSPFJSPVNTPVNTP1VVP1ZWQFZWQldXQVhYQ1lZQltbR1xcRGBgR2FhSGRkSmZmS2dnUWhoVWlpVnR0YYyMeZGRfpmZhgAAAAoKCA4OCg8PCyAgHS4uJzIyLUlJNkpKNktLOE1NOU1NOk5OOU5OOlBQPlFRPFJSPlhYRVhYRl9fSmFhR2NjSWNjUmVlUGZmU2lpTmlpVnFxZnJyY3R0VnR0YXZ2V3Z2Ynd3V3h4WXh4ZHl5Y3l5ZXp6Wnx8Zn9/bICAaYKCbISEcYSEcoaGcYuLfY2NdpGRepGRfpWVfZeXhJubhJ2dhZ6eiqGhjqOjkKWlkqmplrGxlrGxnrKyn7e3nbq6s729qsHBrsPDsMXFssnJtv///2utv6AAAABTdFJOUwAIECAoLzA4PD1ARldqbXN6gYmeo6mpwMDO1trc5Obn6u/z9/r6+vr7+/v7/Pz8/Pz9/f39/f39/f7+/v7+/v7+/v7+/v7+/v7+/v7+/v7+/v7+02AM/AAAAAlwSFlzAAAXEQAAFxEByibzPwAAAolJREFUSEvtlldj0zAQxy8tM+y9KZviQqGsssreYY8WTAHTsjc0BcROWWFjlvtxuZPORoqV2IU+9CG/F8u6u7+lk3wSADQQ+HTvIB41ehGz4SNeAA49fd8FCIibaJpB0RuwcQ2jL9Vj4zsGFfTGZBnU9gTk0/cFzJPh6ALQtDbkLMXgtyiMKHjpOhYe1OkU4SgZHOz4WxGbpAIiZy1R7zwIRKgOn9JB4HhVB3+1tx87Ah4k0hEELvAkGOGGKWNiHY2k8ZdJpMkzJabQu2Iuu+i0qHxK5BKX4AnDIUx7SGHAOQyxOyzIIoMBpgfBBTdO+2nMxQHMrblxTFyR6NAMsNRx7qncmnzrdJwzcojTuMdkR7RScxwbM9kaUsN7V2f5cDYig76ysMbbu1m2IrzXdVZ3C82BZ6VTFIbDA/4/Il6VOHTxEkT0VB0kfXTIWh3yo2lXk32dVkUiivdP/sJF3waQOYaVxcIJ2hR7sA5d5HJjIyfQgSWtiH5wmJDgMBYn6TgraLwxPPw7xlAWoPYHdxns3C+NxAfuMnieYyvAOa6aBjeusBVZon5Gk+1sNKmd/Zk/UJmPLSu1nRAxctmL12l4tDUv6m0CtnJuoejh8pQT+PIuiQSBrtJiXEqhpypQFRjYAuMWNaDAYy6a5XlDAvmO1vV8HG9soujM1KP4l6NAGortXmsbVW3k8K5uvLnW1H2Sb7ePp4SuMsTufTgZFFj18t/A644SqHTlqUSfBU7p4LsUaMaj4T9GsAbDQ4FnvE5puCwj3EZ1sMBQPGhHLf7NqU3k55ars+hszg5T4USmznIjK8OhvTnt4q6YeISNybzfHA+H+Q+fpuX6+Xg4HmhyRqkYwSEaAH8AqcBbZ77mGLsAAAAASUVORK5CYII=;" vertex="1" parent="1">
          <mxGeometry x="750" y="930" width="64" height="56" as="geometry" />
        </mxCell>
        <mxCell id="Spx9FryGJ42Kt7Lb2Zxw-8" value="" style="endArrow=none;html=1;rounded=0;" edge="1" parent="1">
          <mxGeometry width="50" height="50" relative="1" as="geometry">
            <mxPoint x="40" y="930" as="sourcePoint" />
            <mxPoint x="120" y="760" as="targetPoint" />
          </mxGeometry>
        </mxCell>
        <mxCell id="Spx9FryGJ42Kt7Lb2Zxw-9" value="" style="shape=image;verticalLabelPosition=bottom;labelBackgroundColor=default;verticalAlign=top;aspect=fixed;imageAspect=0;image=data:image/png,iVBORw0KGgoAAAANSUhEUgAAAEkAAAAoCAMAAAHyAheHAAAAAXNSR0IArs4c6QAAAARnQU1BAACxjwv8YQUAAAKCUExURQAAAJ/f/6/f/6rq/6zm/6rk/6jk/6bm/5XV7pXg/6rk/5fY8pfi/5rZ85rg/6nl/5Db/6nl/6jm/5DO643P6Y3e/5HQ65Hf/47f/5HR7JHR7JHe/4/P64/e/5XV75Xh/5Hf/47P6o7e/5PS7ZPf/5Xg/5He/4nL5ond/47P6pjY8oPG4YPb/3e82HfX/3G31XHW/2bT/2uy0Guz0GvJ8GvU/0XJ/0qYuUrL/1CdvFDL/1WhwFrQ/2683XLC4nzZ/33Z/4PR8YPb/4fU84vW9ovY94zY+I3d/pDc/JDf/5LX85Pe/QALEAASGQAVHgAaJAAeKgAjMQAtPwAyRwA5UAA/WQBGYwBNbQBVeABagABdgwBljwBtmwB3qACAtQCJwwCU0QCW1QCe4ACp7wC0/wVehAW1/wpiiAu3/xAWGBAdIhBSbRBfgBB2oRC4/xC5/xVskBW6/xu8/x50lx8iIx9ddh+9/yC9/yW+/yd7nit9oCvB/y4wMC43Oi6Qty7B/zCCpDXE/zrF/zxebDxxiDyt3DzF/0DG/0Gdw0pLS0pqdkrK/0uYuFWgwFW+6lXN/1dXV1fN/1rO/2DQ/2HQ/mRkZGR5gWTR/2WtzHDV/3XW/3/S9YXI44eHh4fc/5De/pKSkpKWmJLN5ZTe/ZXc+pre+5zi/5/h/aHk/6ampqbl/6+wsK+wsq/d8K/n/7jP2cDAwMDAwcDLz8Di8MDt/8fLzcfv/87OztXV1dXl7NXy/9vb29vd3tvz/dv0/+Hh4eHk5ebm5ubu8ub3/+vr6+v5/+/v7+/5/u/6//Pz8/P7/vP7//b29vb7/fb8/vn5+fn9/vv7+/v9/v39/f7+/v///zcN5/wAAABMdFJOUwAIEBgoMDg8W1tgYmJqanR6gJCXo6OpqbXO19fa2tvb4e/v8PDx8/j4+Pj5+fv7/Pz9/f39/f7+/v7+/v7+/v7+/v7+/v7+/v7+/v5XUo76AAAACXBIWXMAABcRAAAXEQHKJvM/AAADoElEQVQ4T6WVi1tURRiHB1cIyVtqUd4SKW9JViaamiamQaGlknUCW4JvUUoRDRU1xStqoqJiWmtJeUdTKxS6GF66rGmlwvw/frcDHFx3fZb3eWBn5rzzm3PmzMwxxgzYg2zf0wuLLdYCwKYkY9ZTqQKcJPPyR4zjmNYimsZQL8QYsOj+Ao5Jp0I+oCkeiVrqz126AOzA/DL00DyKwxisluCftGDXJPOsBgufOu0GVhynC/b0tk3iAQjtKOynlmWQV++O8S/epzEj3AEZGqEnQA4W/6DmX+FVahKHpBDAa3QfGqpgSw/3+YSg4wxvfWQh6JTieFoRgnQHHZqoxaUb35TLXKGh+ROqTaE5IyZAYXaTbZGLLALMsfYE/mTQLBKDqLGkeS/9gD+Xeb8xn2qLVuPdk+Vbhg9ea/9hx+WAtaEKgEx02BpNjddsvbCTHSWdHafU1+F9eMB5IQbieNGs8XznUaxEliJbI8UxZsbuB3KM1pGXffpyw3BKFfO8PjvzgbyC2fYM1SaPVecZqr1zkf4DFNyRpURUwPKFKiUDzP/a2s0c8K6o0GBDtCGqHJHii+A77YmcE2frl/zzuiNS3Fqqfa/LWd5zbtkXXMvC6WJpHNX8S7gRZmkesgWghiaepKFoFDdZGr8VPzp1AOULVXoS4DfpSVwX6TwaAEVV5KCUUIS1ShvSBUPXWpnGjpNivtJpDcMRcV7qsEu87GJnTVx0KRCPz6YN4WDpCZokbQgHSankRJHS2IksbRAnohTo+hBSX3WMLuhwjFLlPh6fqK8kCoWfnV2sRWLqm+4ZpMSPoNfNFL63QEtCXvVfHmjJtPywgq9tnOmM9SY9zesY/PPKTt+w/3lWIdSH2vj7Bq89+ztvg0VZeJZ5krq/gFvu7erGZtE8yM5R5n9r79ZXagVq8NT3JPmG4uGIrPwJv4v2pq5mQXeiUODXArPqLd4r7ZKSJ+glouQbLRAFZRc8/G/t1c8L9GKG7Ke2pITROtP+nOLaK5ekLHz4ozxfB/7EYxy2TdccNyluSLlkNJHTvC67HbmSp3x8Cz8FdRSCLH2DvhoKJ/V+kS9U/MyDebntfYEr9ZeQmXbBJN+wpXoJOXjZ2/PBlGfKTAuB5xKMOR6MhZOHNIMZz2dBhK9LBIJyLDGlKT4K6nzSmEc5p9NJawZrTieTAsPpRFU6k/RKPw1hYk8qTfV+yWNOSkvUBJcYkw4/pf3beCwm+jyi3V2MuQcUSk9kq2ywtgAAAABJRU5ErkJggg==;" vertex="1" parent="1">
          <mxGeometry x="87" y="720" width="73" height="40" as="geometry" />
        </mxCell>
        <mxCell id="Spx9FryGJ42Kt7Lb2Zxw-10" value="" style="endArrow=none;html=1;rounded=0;" edge="1" parent="1">
          <mxGeometry width="50" height="50" relative="1" as="geometry">
            <mxPoint x="190" y="930" as="sourcePoint" />
            <mxPoint x="120" y="760" as="targetPoint" />
          </mxGeometry>
        </mxCell>
        <mxCell id="Spx9FryGJ42Kt7Lb2Zxw-11" value="" style="endArrow=none;html=1;rounded=0;" edge="1" parent="1">
          <mxGeometry width="50" height="50" relative="1" as="geometry">
            <mxPoint x="333" y="930" as="sourcePoint" />
            <mxPoint x="413" y="760" as="targetPoint" />
          </mxGeometry>
        </mxCell>
        <mxCell id="Spx9FryGJ42Kt7Lb2Zxw-12" value="" style="endArrow=none;html=1;rounded=0;" edge="1" parent="1">
          <mxGeometry width="50" height="50" relative="1" as="geometry">
            <mxPoint x="490" y="930" as="sourcePoint" />
            <mxPoint x="410" y="760" as="targetPoint" />
          </mxGeometry>
        </mxCell>
        <mxCell id="Spx9FryGJ42Kt7Lb2Zxw-13" value="" style="shape=image;verticalLabelPosition=bottom;labelBackgroundColor=default;verticalAlign=top;aspect=fixed;imageAspect=0;image=data:image/png,iVBORw0KGgoAAAANSUhEUgAAAEkAAAAoCAMAAAHyAheHAAAAAXNSR0IArs4c6QAAAARnQU1BAACxjwv8YQUAAAKCUExURQAAAJ/f/6/f/6rq/6zm/6rk/6jk/6bm/5XV7pXg/6rk/5fY8pfi/5rZ85rg/6nl/5Db/6nl/6jm/5DO643P6Y3e/5HQ65Hf/47f/5HR7JHR7JHe/4/P64/e/5XV75Xh/5Hf/47P6o7e/5PS7ZPf/5Xg/5He/4nL5ond/47P6pjY8oPG4YPb/3e82HfX/3G31XHW/2bT/2uy0Guz0GvJ8GvU/0XJ/0qYuUrL/1CdvFDL/1WhwFrQ/2683XLC4nzZ/33Z/4PR8YPb/4fU84vW9ovY94zY+I3d/pDc/JDf/5LX85Pe/QALEAASGQAVHgAaJAAeKgAjMQAtPwAyRwA5UAA/WQBGYwBNbQBVeABagABdgwBljwBtmwB3qACAtQCJwwCU0QCW1QCe4ACp7wC0/wVehAW1/wpiiAu3/xAWGBAdIhBSbRBfgBB2oRC4/xC5/xVskBW6/xu8/x50lx8iIx9ddh+9/yC9/yW+/yd7nit9oCvB/y4wMC43Oi6Qty7B/zCCpDXE/zrF/zxebDxxiDyt3DzF/0DG/0Gdw0pLS0pqdkrK/0uYuFWgwFW+6lXN/1dXV1fN/1rO/2DQ/2HQ/mRkZGR5gWTR/2WtzHDV/3XW/3/S9YXI44eHh4fc/5De/pKSkpKWmJLN5ZTe/ZXc+pre+5zi/5/h/aHk/6ampqbl/6+wsK+wsq/d8K/n/7jP2cDAwMDAwcDLz8Di8MDt/8fLzcfv/87OztXV1dXl7NXy/9vb29vd3tvz/dv0/+Hh4eHk5ebm5ubu8ub3/+vr6+v5/+/v7+/5/u/6//Pz8/P7/vP7//b29vb7/fb8/vn5+fn9/vv7+/v9/v39/f7+/v///zcN5/wAAABMdFJOUwAIEBgoMDg8W1tgYmJqanR6gJCXo6OpqbXO19fa2tvb4e/v8PDx8/j4+Pj5+fv7/Pz9/f39/f7+/v7+/v7+/v7+/v7+/v7+/v7+/v5XUo76AAAACXBIWXMAABcRAAAXEQHKJvM/AAADoElEQVQ4T6WVi1tURRiHB1cIyVtqUd4SKW9JViaamiamQaGlknUCW4JvUUoRDRU1xStqoqJiWmtJeUdTKxS6GF66rGmlwvw/frcDHFx3fZb3eWBn5rzzm3PmzMwxxgzYg2zf0wuLLdYCwKYkY9ZTqQKcJPPyR4zjmNYimsZQL8QYsOj+Ao5Jp0I+oCkeiVrqz126AOzA/DL00DyKwxisluCftGDXJPOsBgufOu0GVhynC/b0tk3iAQjtKOynlmWQV++O8S/epzEj3AEZGqEnQA4W/6DmX+FVahKHpBDAa3QfGqpgSw/3+YSg4wxvfWQh6JTieFoRgnQHHZqoxaUb35TLXKGh+ROqTaE5IyZAYXaTbZGLLALMsfYE/mTQLBKDqLGkeS/9gD+Xeb8xn2qLVuPdk+Vbhg9ea/9hx+WAtaEKgEx02BpNjddsvbCTHSWdHafU1+F9eMB5IQbieNGs8XznUaxEliJbI8UxZsbuB3KM1pGXffpyw3BKFfO8PjvzgbyC2fYM1SaPVecZqr1zkf4DFNyRpURUwPKFKiUDzP/a2s0c8K6o0GBDtCGqHJHii+A77YmcE2frl/zzuiNS3Fqqfa/LWd5zbtkXXMvC6WJpHNX8S7gRZmkesgWghiaepKFoFDdZGr8VPzp1AOULVXoS4DfpSVwX6TwaAEVV5KCUUIS1ShvSBUPXWpnGjpNivtJpDcMRcV7qsEu87GJnTVx0KRCPz6YN4WDpCZokbQgHSankRJHS2IksbRAnohTo+hBSX3WMLuhwjFLlPh6fqK8kCoWfnV2sRWLqm+4ZpMSPoNfNFL63QEtCXvVfHmjJtPywgq9tnOmM9SY9zesY/PPKTt+w/3lWIdSH2vj7Bq89+ztvg0VZeJZ5krq/gFvu7erGZtE8yM5R5n9r79ZXagVq8NT3JPmG4uGIrPwJv4v2pq5mQXeiUODXArPqLd4r7ZKSJ+glouQbLRAFZRc8/G/t1c8L9GKG7Ke2pITROtP+nOLaK5ekLHz4ozxfB/7EYxy2TdccNyluSLlkNJHTvC67HbmSp3x8Cz8FdRSCLH2DvhoKJ/V+kS9U/MyDebntfYEr9ZeQmXbBJN+wpXoJOXjZ2/PBlGfKTAuB5xKMOR6MhZOHNIMZz2dBhK9LBIJyLDGlKT4K6nzSmEc5p9NJawZrTieTAsPpRFU6k/RKPw1hYk8qTfV+yWNOSkvUBJcYkw4/pf3beCwm+jyi3V2MuQcUSk9kq2ywtgAAAABJRU5ErkJggg==;" vertex="1" parent="1">
          <mxGeometry x="377" y="720" width="73" height="40" as="geometry" />
        </mxCell>
        <mxCell id="Spx9FryGJ42Kt7Lb2Zxw-14" value="" style="shape=image;verticalLabelPosition=bottom;labelBackgroundColor=default;verticalAlign=top;aspect=fixed;imageAspect=0;image=data:image/png,iVBORw0KGgoAAAANSUhEUgAAAEkAAAAoCAMAAAHyAheHAAAAAXNSR0IArs4c6QAAAARnQU1BAACxjwv8YQUAAAKCUExURQAAAJ/f/6/f/6rq/6zm/6rk/6jk/6bm/5XV7pXg/6rk/5fY8pfi/5rZ85rg/6nl/5Db/6nl/6jm/5DO643P6Y3e/5HQ65Hf/47f/5HR7JHR7JHe/4/P64/e/5XV75Xh/5Hf/47P6o7e/5PS7ZPf/5Xg/5He/4nL5ond/47P6pjY8oPG4YPb/3e82HfX/3G31XHW/2bT/2uy0Guz0GvJ8GvU/0XJ/0qYuUrL/1CdvFDL/1WhwFrQ/2683XLC4nzZ/33Z/4PR8YPb/4fU84vW9ovY94zY+I3d/pDc/JDf/5LX85Pe/QALEAASGQAVHgAaJAAeKgAjMQAtPwAyRwA5UAA/WQBGYwBNbQBVeABagABdgwBljwBtmwB3qACAtQCJwwCU0QCW1QCe4ACp7wC0/wVehAW1/wpiiAu3/xAWGBAdIhBSbRBfgBB2oRC4/xC5/xVskBW6/xu8/x50lx8iIx9ddh+9/yC9/yW+/yd7nit9oCvB/y4wMC43Oi6Qty7B/zCCpDXE/zrF/zxebDxxiDyt3DzF/0DG/0Gdw0pLS0pqdkrK/0uYuFWgwFW+6lXN/1dXV1fN/1rO/2DQ/2HQ/mRkZGR5gWTR/2WtzHDV/3XW/3/S9YXI44eHh4fc/5De/pKSkpKWmJLN5ZTe/ZXc+pre+5zi/5/h/aHk/6ampqbl/6+wsK+wsq/d8K/n/7jP2cDAwMDAwcDLz8Di8MDt/8fLzcfv/87OztXV1dXl7NXy/9vb29vd3tvz/dv0/+Hh4eHk5ebm5ubu8ub3/+vr6+v5/+/v7+/5/u/6//Pz8/P7/vP7//b29vb7/fb8/vn5+fn9/vv7+/v9/v39/f7+/v///zcN5/wAAABMdFJOUwAIEBgoMDg8W1tgYmJqanR6gJCXo6OpqbXO19fa2tvb4e/v8PDx8/j4+Pj5+fv7/Pz9/f39/f7+/v7+/v7+/v7+/v7+/v7+/v7+/v5XUo76AAAACXBIWXMAABcRAAAXEQHKJvM/AAADoElEQVQ4T6WVi1tURRiHB1cIyVtqUd4SKW9JViaamiamQaGlknUCW4JvUUoRDRU1xStqoqJiWmtJeUdTKxS6GF66rGmlwvw/frcDHFx3fZb3eWBn5rzzm3PmzMwxxgzYg2zf0wuLLdYCwKYkY9ZTqQKcJPPyR4zjmNYimsZQL8QYsOj+Ao5Jp0I+oCkeiVrqz126AOzA/DL00DyKwxisluCftGDXJPOsBgufOu0GVhynC/b0tk3iAQjtKOynlmWQV++O8S/epzEj3AEZGqEnQA4W/6DmX+FVahKHpBDAa3QfGqpgSw/3+YSg4wxvfWQh6JTieFoRgnQHHZqoxaUb35TLXKGh+ROqTaE5IyZAYXaTbZGLLALMsfYE/mTQLBKDqLGkeS/9gD+Xeb8xn2qLVuPdk+Vbhg9ea/9hx+WAtaEKgEx02BpNjddsvbCTHSWdHafU1+F9eMB5IQbieNGs8XznUaxEliJbI8UxZsbuB3KM1pGXffpyw3BKFfO8PjvzgbyC2fYM1SaPVecZqr1zkf4DFNyRpURUwPKFKiUDzP/a2s0c8K6o0GBDtCGqHJHii+A77YmcE2frl/zzuiNS3Fqqfa/LWd5zbtkXXMvC6WJpHNX8S7gRZmkesgWghiaepKFoFDdZGr8VPzp1AOULVXoS4DfpSVwX6TwaAEVV5KCUUIS1ShvSBUPXWpnGjpNivtJpDcMRcV7qsEu87GJnTVx0KRCPz6YN4WDpCZokbQgHSankRJHS2IksbRAnohTo+hBSX3WMLuhwjFLlPh6fqK8kCoWfnV2sRWLqm+4ZpMSPoNfNFL63QEtCXvVfHmjJtPywgq9tnOmM9SY9zesY/PPKTt+w/3lWIdSH2vj7Bq89+ztvg0VZeJZ5krq/gFvu7erGZtE8yM5R5n9r79ZXagVq8NT3JPmG4uGIrPwJv4v2pq5mQXeiUODXArPqLd4r7ZKSJ+glouQbLRAFZRc8/G/t1c8L9GKG7Ke2pITROtP+nOLaK5ekLHz4ozxfB/7EYxy2TdccNyluSLlkNJHTvC67HbmSp3x8Cz8FdRSCLH2DvhoKJ/V+kS9U/MyDebntfYEr9ZeQmXbBJN+wpXoJOXjZ2/PBlGfKTAuB5xKMOR6MhZOHNIMZz2dBhK9LBIJyLDGlKT4K6nzSmEc5p9NJawZrTieTAsPpRFU6k/RKPw1hYk8qTfV+yWNOSkvUBJcYkw4/pf3beCwm+jyi3V2MuQcUSk9kq2ywtgAAAABJRU5ErkJggg==;" vertex="1" parent="1">
          <mxGeometry x="660" y="720" width="73" height="40" as="geometry" />
        </mxCell>
        <mxCell id="Spx9FryGJ42Kt7Lb2Zxw-15" value="" style="endArrow=none;html=1;rounded=0;entryX=0.25;entryY=1;entryDx=0;entryDy=0;" edge="1" parent="1" target="Spx9FryGJ42Kt7Lb2Zxw-14">
          <mxGeometry width="50" height="50" relative="1" as="geometry">
            <mxPoint x="630" y="930" as="sourcePoint" />
            <mxPoint x="550" y="760" as="targetPoint" />
          </mxGeometry>
        </mxCell>
        <mxCell id="Spx9FryGJ42Kt7Lb2Zxw-16" value="" style="endArrow=none;html=1;rounded=0;" edge="1" parent="1">
          <mxGeometry width="50" height="50" relative="1" as="geometry">
            <mxPoint x="790" y="930" as="sourcePoint" />
            <mxPoint x="710" y="760" as="targetPoint" />
          </mxGeometry>
        </mxCell>
        <mxCell id="Spx9FryGJ42Kt7Lb2Zxw-17" value="PC0" style="text;html=1;align=center;verticalAlign=middle;resizable=0;points=[];autosize=1;strokeColor=none;fillColor=none;" vertex="1" parent="1">
          <mxGeometry x="5" y="998" width="50" height="30" as="geometry" />
        </mxCell>
        <mxCell id="Spx9FryGJ42Kt7Lb2Zxw-18" value="PC1&lt;span style=&quot;white-space: pre;&quot;&gt;&#x9;&lt;/span&gt;" style="text;html=1;align=center;verticalAlign=middle;resizable=0;points=[];autosize=1;strokeColor=none;fillColor=none;" vertex="1" parent="1">
          <mxGeometry x="155" y="998" width="50" height="30" as="geometry" />
        </mxCell>
        <mxCell id="Spx9FryGJ42Kt7Lb2Zxw-20" value="PC2" style="text;html=1;align=center;verticalAlign=middle;resizable=0;points=[];autosize=1;strokeColor=none;fillColor=none;" vertex="1" parent="1">
          <mxGeometry x="315" y="998" width="50" height="30" as="geometry" />
        </mxCell>
        <mxCell id="Spx9FryGJ42Kt7Lb2Zxw-21" value="PC3" style="text;html=1;align=center;verticalAlign=middle;resizable=0;points=[];autosize=1;strokeColor=none;fillColor=none;" vertex="1" parent="1">
          <mxGeometry x="455" y="998" width="50" height="30" as="geometry" />
        </mxCell>
        <mxCell id="Spx9FryGJ42Kt7Lb2Zxw-22" value="PC4" style="text;html=1;align=center;verticalAlign=middle;resizable=0;points=[];autosize=1;strokeColor=none;fillColor=none;" vertex="1" parent="1">
          <mxGeometry x="595" y="998" width="50" height="30" as="geometry" />
        </mxCell>
        <mxCell id="Spx9FryGJ42Kt7Lb2Zxw-23" value="PC5" style="text;html=1;align=center;verticalAlign=middle;resizable=0;points=[];autosize=1;strokeColor=none;fillColor=none;" vertex="1" parent="1">
          <mxGeometry x="757" y="1000" width="50" height="30" as="geometry" />
        </mxCell>
        <mxCell id="Spx9FryGJ42Kt7Lb2Zxw-24" value="Fa0" style="text;html=1;align=center;verticalAlign=middle;resizable=0;points=[];autosize=1;strokeColor=none;fillColor=none;" vertex="1" parent="1">
          <mxGeometry y="888" width="40" height="30" as="geometry" />
        </mxCell>
        <mxCell id="Spx9FryGJ42Kt7Lb2Zxw-25" value="Fa0" style="text;html=1;align=center;verticalAlign=middle;resizable=0;points=[];autosize=1;strokeColor=none;fillColor=none;" vertex="1" parent="1">
          <mxGeometry x="140" y="888" width="40" height="30" as="geometry" />
        </mxCell>
        <mxCell id="Spx9FryGJ42Kt7Lb2Zxw-26" value="Fa0" style="text;html=1;align=center;verticalAlign=middle;resizable=0;points=[];autosize=1;strokeColor=none;fillColor=none;" vertex="1" parent="1">
          <mxGeometry x="300" y="888" width="40" height="30" as="geometry" />
        </mxCell>
        <mxCell id="Spx9FryGJ42Kt7Lb2Zxw-27" value="Fa0" style="text;html=1;align=center;verticalAlign=middle;resizable=0;points=[];autosize=1;strokeColor=none;fillColor=none;" vertex="1" parent="1">
          <mxGeometry x="420" y="888" width="40" height="30" as="geometry" />
        </mxCell>
        <mxCell id="Spx9FryGJ42Kt7Lb2Zxw-28" value="Fa0" style="text;html=1;align=center;verticalAlign=middle;resizable=0;points=[];autosize=1;strokeColor=none;fillColor=none;" vertex="1" parent="1">
          <mxGeometry x="580" y="888" width="40" height="30" as="geometry" />
        </mxCell>
        <mxCell id="Spx9FryGJ42Kt7Lb2Zxw-29" value="Fa0" style="text;html=1;align=center;verticalAlign=middle;resizable=0;points=[];autosize=1;strokeColor=none;fillColor=none;" vertex="1" parent="1">
          <mxGeometry x="733" y="888" width="40" height="30" as="geometry" />
        </mxCell>
        <mxCell id="Spx9FryGJ42Kt7Lb2Zxw-30" value="Fa0/4" style="text;html=1;align=center;verticalAlign=middle;resizable=0;points=[];autosize=1;strokeColor=none;fillColor=none;" vertex="1" parent="1">
          <mxGeometry x="55" y="768" width="50" height="30" as="geometry" />
        </mxCell>
        <mxCell id="Spx9FryGJ42Kt7Lb2Zxw-31" value="Fa0/14" style="text;html=1;align=center;verticalAlign=middle;resizable=0;points=[];autosize=1;strokeColor=none;fillColor=none;" vertex="1" parent="1">
          <mxGeometry x="140" y="768" width="60" height="30" as="geometry" />
        </mxCell>
        <mxCell id="Spx9FryGJ42Kt7Lb2Zxw-32" value="Fa0/3" style="text;html=1;align=center;verticalAlign=middle;resizable=0;points=[];autosize=1;strokeColor=none;fillColor=none;" vertex="1" parent="1">
          <mxGeometry x="340" y="768" width="50" height="30" as="geometry" />
        </mxCell>
        <mxCell id="Spx9FryGJ42Kt7Lb2Zxw-33" value="Fa0/7" style="text;html=1;align=center;verticalAlign=middle;resizable=0;points=[];autosize=1;strokeColor=none;fillColor=none;" vertex="1" parent="1">
          <mxGeometry x="435" y="768" width="50" height="30" as="geometry" />
        </mxCell>
        <mxCell id="Spx9FryGJ42Kt7Lb2Zxw-34" value="Fa0/1" style="text;html=1;align=center;verticalAlign=middle;resizable=0;points=[];autosize=1;strokeColor=none;fillColor=none;" vertex="1" parent="1">
          <mxGeometry x="620" y="760" width="50" height="30" as="geometry" />
        </mxCell>
        <mxCell id="Spx9FryGJ42Kt7Lb2Zxw-36" value="Fa0/17" style="text;html=1;align=center;verticalAlign=middle;resizable=0;points=[];autosize=1;strokeColor=none;fillColor=none;" vertex="1" parent="1">
          <mxGeometry x="720" y="758" width="60" height="30" as="geometry" />
        </mxCell>
        <mxCell id="Spx9FryGJ42Kt7Lb2Zxw-37" value="AS1" style="text;html=1;align=center;verticalAlign=middle;resizable=0;points=[];autosize=1;strokeColor=none;fillColor=none;" vertex="1" parent="1">
          <mxGeometry x="98.5" y="780" width="50" height="30" as="geometry" />
        </mxCell>
        <mxCell id="Spx9FryGJ42Kt7Lb2Zxw-39" value="AS2" style="text;html=1;align=center;verticalAlign=middle;resizable=0;points=[];autosize=1;strokeColor=none;fillColor=none;" vertex="1" parent="1">
          <mxGeometry x="385" y="768" width="50" height="30" as="geometry" />
        </mxCell>
        <mxCell id="Spx9FryGJ42Kt7Lb2Zxw-40" value="AS3" style="text;html=1;align=center;verticalAlign=middle;resizable=0;points=[];autosize=1;strokeColor=none;fillColor=none;" vertex="1" parent="1">
          <mxGeometry x="671.5" y="780" width="50" height="30" as="geometry" />
        </mxCell>
        <mxCell id="Spx9FryGJ42Kt7Lb2Zxw-41" value="100mbps" style="text;html=1;align=center;verticalAlign=middle;resizable=0;points=[];autosize=1;strokeColor=none;fillColor=none;" vertex="1" parent="1">
          <mxGeometry x="15" y="848" width="70" height="30" as="geometry" />
        </mxCell>
        <mxCell id="Spx9FryGJ42Kt7Lb2Zxw-42" value="100mbps" style="text;html=1;align=center;verticalAlign=middle;resizable=0;points=[];autosize=1;strokeColor=none;fillColor=none;" vertex="1" parent="1">
          <mxGeometry x="90" y="848" width="70" height="30" as="geometry" />
        </mxCell>
        <mxCell id="Spx9FryGJ42Kt7Lb2Zxw-43" value="100mbps" style="text;html=1;align=center;verticalAlign=middle;resizable=0;points=[];autosize=1;strokeColor=none;fillColor=none;" vertex="1" parent="1">
          <mxGeometry x="295" y="830" width="70" height="30" as="geometry" />
        </mxCell>
        <mxCell id="Spx9FryGJ42Kt7Lb2Zxw-44" value="100mbps" style="text;html=1;align=center;verticalAlign=middle;resizable=0;points=[];autosize=1;strokeColor=none;fillColor=none;" vertex="1" parent="1">
          <mxGeometry x="380" y="830" width="70" height="30" as="geometry" />
        </mxCell>
        <mxCell id="Spx9FryGJ42Kt7Lb2Zxw-45" value="100mbps" style="text;html=1;align=center;verticalAlign=middle;resizable=0;points=[];autosize=1;strokeColor=none;fillColor=none;" vertex="1" parent="1">
          <mxGeometry x="580" y="830" width="70" height="30" as="geometry" />
        </mxCell>
        <mxCell id="Spx9FryGJ42Kt7Lb2Zxw-46" value="100mbps" style="text;html=1;align=center;verticalAlign=middle;resizable=0;points=[];autosize=1;strokeColor=none;fillColor=none;" vertex="1" parent="1">
          <mxGeometry x="757" y="830" width="70" height="30" as="geometry" />
        </mxCell>
        <mxCell id="Spx9FryGJ42Kt7Lb2Zxw-47" value="" style="shape=image;verticalLabelPosition=bottom;labelBackgroundColor=default;verticalAlign=top;aspect=fixed;imageAspect=0;image=data:image/png,iVBORw0KGgoAAAANSUhEUgAAAEkAAAAoCAMAAAHyAheHAAAAAXNSR0IArs4c6QAAAARnQU1BAACxjwv8YQUAAAKCUExURQAAAJ/f/6/f/6rq/6zm/6rk/6jk/6bm/5XV7pXg/6rk/5fY8pfi/5rZ85rg/6nl/5Db/6nl/6jm/5DO643P6Y3e/5HQ65Hf/47f/5HR7JHR7JHe/4/P64/e/5XV75Xh/5Hf/47P6o7e/5PS7ZPf/5Xg/5He/4nL5ond/47P6pjY8oPG4YPb/3e82HfX/3G31XHW/2bT/2uy0Guz0GvJ8GvU/0XJ/0qYuUrL/1CdvFDL/1WhwFrQ/2683XLC4nzZ/33Z/4PR8YPb/4fU84vW9ovY94zY+I3d/pDc/JDf/5LX85Pe/QALEAASGQAVHgAaJAAeKgAjMQAtPwAyRwA5UAA/WQBGYwBNbQBVeABagABdgwBljwBtmwB3qACAtQCJwwCU0QCW1QCe4ACp7wC0/wVehAW1/wpiiAu3/xAWGBAdIhBSbRBfgBB2oRC4/xC5/xVskBW6/xu8/x50lx8iIx9ddh+9/yC9/yW+/yd7nit9oCvB/y4wMC43Oi6Qty7B/zCCpDXE/zrF/zxebDxxiDyt3DzF/0DG/0Gdw0pLS0pqdkrK/0uYuFWgwFW+6lXN/1dXV1fN/1rO/2DQ/2HQ/mRkZGR5gWTR/2WtzHDV/3XW/3/S9YXI44eHh4fc/5De/pKSkpKWmJLN5ZTe/ZXc+pre+5zi/5/h/aHk/6ampqbl/6+wsK+wsq/d8K/n/7jP2cDAwMDAwcDLz8Di8MDt/8fLzcfv/87OztXV1dXl7NXy/9vb29vd3tvz/dv0/+Hh4eHk5ebm5ubu8ub3/+vr6+v5/+/v7+/5/u/6//Pz8/P7/vP7//b29vb7/fb8/vn5+fn9/vv7+/v9/v39/f7+/v///zcN5/wAAABMdFJOUwAIEBgoMDg8W1tgYmJqanR6gJCXo6OpqbXO19fa2tvb4e/v8PDx8/j4+Pj5+fv7/Pz9/f39/f7+/v7+/v7+/v7+/v7+/v7+/v7+/v5XUo76AAAACXBIWXMAABcRAAAXEQHKJvM/AAADoElEQVQ4T6WVi1tURRiHB1cIyVtqUd4SKW9JViaamiamQaGlknUCW4JvUUoRDRU1xStqoqJiWmtJeUdTKxS6GF66rGmlwvw/frcDHFx3fZb3eWBn5rzzm3PmzMwxxgzYg2zf0wuLLdYCwKYkY9ZTqQKcJPPyR4zjmNYimsZQL8QYsOj+Ao5Jp0I+oCkeiVrqz126AOzA/DL00DyKwxisluCftGDXJPOsBgufOu0GVhynC/b0tk3iAQjtKOynlmWQV++O8S/epzEj3AEZGqEnQA4W/6DmX+FVahKHpBDAa3QfGqpgSw/3+YSg4wxvfWQh6JTieFoRgnQHHZqoxaUb35TLXKGh+ROqTaE5IyZAYXaTbZGLLALMsfYE/mTQLBKDqLGkeS/9gD+Xeb8xn2qLVuPdk+Vbhg9ea/9hx+WAtaEKgEx02BpNjddsvbCTHSWdHafU1+F9eMB5IQbieNGs8XznUaxEliJbI8UxZsbuB3KM1pGXffpyw3BKFfO8PjvzgbyC2fYM1SaPVecZqr1zkf4DFNyRpURUwPKFKiUDzP/a2s0c8K6o0GBDtCGqHJHii+A77YmcE2frl/zzuiNS3Fqqfa/LWd5zbtkXXMvC6WJpHNX8S7gRZmkesgWghiaepKFoFDdZGr8VPzp1AOULVXoS4DfpSVwX6TwaAEVV5KCUUIS1ShvSBUPXWpnGjpNivtJpDcMRcV7qsEu87GJnTVx0KRCPz6YN4WDpCZokbQgHSankRJHS2IksbRAnohTo+hBSX3WMLuhwjFLlPh6fqK8kCoWfnV2sRWLqm+4ZpMSPoNfNFL63QEtCXvVfHmjJtPywgq9tnOmM9SY9zesY/PPKTt+w/3lWIdSH2vj7Bq89+ztvg0VZeJZ5krq/gFvu7erGZtE8yM5R5n9r79ZXagVq8NT3JPmG4uGIrPwJv4v2pq5mQXeiUODXArPqLd4r7ZKSJ+glouQbLRAFZRc8/G/t1c8L9GKG7Ke2pITROtP+nOLaK5ekLHz4ozxfB/7EYxy2TdccNyluSLlkNJHTvC67HbmSp3x8Cz8FdRSCLH2DvhoKJ/V+kS9U/MyDebntfYEr9ZeQmXbBJN+wpXoJOXjZ2/PBlGfKTAuB5xKMOR6MhZOHNIMZz2dBhK9LBIJyLDGlKT4K6nzSmEc5p9NJawZrTieTAsPpRFU6k/RKPw1hYk8qTfV+yWNOSkvUBJcYkw4/pf3beCwm+jyi3V2MuQcUSk9kq2ywtgAAAABJRU5ErkJggg==;" vertex="1" parent="1">
          <mxGeometry x="377" y="580" width="73" height="40" as="geometry" />
        </mxCell>
        <mxCell id="Spx9FryGJ42Kt7Lb2Zxw-48" value="" style="shape=image;verticalLabelPosition=bottom;labelBackgroundColor=default;verticalAlign=top;aspect=fixed;imageAspect=0;image=data:image/png,iVBORw0KGgoAAAANSUhEUgAAADkAAAA4CAMAAAEHnZCEAAAAAXNSR0IArs4c6QAAAARnQU1BAACxjwv8YQUAAAI3UExURQAAAJ/f/6/f/47c/6rm/6nl/47d/4nK56nl/5bX8Y3e/43P6I3e/5HS7JHf/4vM55PT7ZTg/43e/4La/4jc/2vT/1agwVvQ/0COsUDH/1DL/4HF4InM54nO7I7R65DR7JPV75PV8Jra9QAlNQA7UwBAWwBUeABagABbggBjjABnkgBzowB7rwCEuwCMyACW1QC0/wdCXgiZ1gq2/xBHXRBlihCMvxCTzBCc1xVskBW6/x8pLh92mh+j2iB0mCfA/ytLayt9oC4xMi44Oy6p3TCCpDqKrDw/Qjyv30YsMEg5PE5OTlSTrlWgwFW+6lXN/1dZWVdaXFdnbleYtFeiwle641kgKl9ARWEtNmXR/29GTXBxcXB3enCAh3Cnv3DE6HMgLnyktH/S9YDT9IM+S4XI44Xc/5JzeJXc+paevJa/0JbX8ZfW8JwwQpycnZykqJyzvJy6x5zD0pzW76lCVKw7Tqyvsa/H0q/e8rbK4LjIz75SZcA6UcDAwMDCw8DFx8DJzcDV3sDl9cZkdcfHx8fk8Mfm89LIytOqsdfX19ve39vv99xBW9/a29/f3+FBXOJSa+K+xOROZ+RzhuVAXOZGYeZmfObm5ubn5+bs7uledutqgOvs7Ovu7+v1+uzEz+6Mne+Imu+Nnu/09u/1+PCOn/GUpPGptfG6xPH19/KaqfLd4fPz8/bn6vb29vb4+vb5+vb6/Pb7/ff39/n5+fv7+/v8/Pv8/f3z9f39/f75+v7+/v///9tF7uEAAAAjdFJOUwAIEHN4gJCenqGjwMDFztbn7/r7+/z9/f7+/v7+/v7+/v7+yHsXCgAAAAlwSFlzAAAXEQAAFxEByibzPwAAA91JREFUOE+VlfdjFEUUxydq7B2xYeHkvOWMl7EnGAWD4mFJRIKAFXs3KsUGJ17E3nGsxIogIAZBT8V7f5yvzdzs7m0Inx9u5s13vztv3s7MGTOLOdaMWnuVtbbXjJYt2DXUsW0HPNJsumaTOvMB2oMs4TMkqd1ggCSGhoFae+s7FI81nWt+j3HLj1eX0njPZREL+YUI3MVNwnEb0DEFN0m8rNFoOOfwd1J12/rc/URZSFzmmS2s8X4EvcQJxpjTJVHmDHOOzkwsoqw6DGv41T/ccIjvHd9u+7ERFTCkyD8MjgolYZvzpEQlxNohzeZmfbgWP4wRvTm8CjsYUiMPW7tlihsfKsO4InOWLiDLtUt6zZMPFzCchOowdXhfe0RQL61UKB4HzMYHHbUMQCmz2j8FVPNIRdqoo0qaDAT1ao5uoZq437hP7xb1Onwt8h6LWCVhXfDizsGKvcniHuoz0by1Fs+7m+cXghrnTHouZ0JUT1Z9AA5ojxhOTjHmkdECjqMvZMyRuuVyPGvM8fq9cswdMSdrN8d5yYjRT5njmQRFzY7o15YppcW+v3yFiIz4CsCEdpEgVirzqZHaVipVaoLYgpepEfFGaSIRHsKGR4fkQ3TEpWOs0ihqE4Mp0VpWUSRNRiIR1Y+fc25jJ2EVaxzc/gntlS9EG/BitYWns9FYzRvJfcYBDKh4kDcdbBDxZ4nAvxaPM/KoiLs4gMFUQrYu4mscXJ/Otg6/k/YvvKADkVinNeBMuF5Vg3gNa1whUrOF57WTSGq6ti14ixoZXZ4RFRlVMuJ9APdrF8k624Dr85SSm3tikdYeKJ2Jh0GPRo6L5KwYc/Rs3eUz5crzH8P/IHPiuRrPlEUXLExGes1pj99xeNx94YIEa5C6FWZGCS+TaZy1ob3xPRwzrbO6DD8/pO7wDoeYcxyN8XUXkXOWaZq2/D2nnQOTlADfpkR3J59+InL2D+G/w3TOi/9Yi/e09wan+t7+rthJjAWvOtXn7wmmoELqveS2Vfc88VI3X6GTvFtWfsg3gHNb3835Ms6+xd/IKHH5JvURX16ho8i8Sby7Us7KvZyi8ueDahJ+1WGBvPGcsjjPevUIO3VU+CA9JzK2j36FG9QjvKqjSHm/XOEFFarVWx99qi7nvv0v3IWB7k70UVITT/24zW3b8cPTvIyMt5vT+7Dr95CUIOXNOctf3xl88b4V7/OvH2rH++8e7Xj1Fjurf6O8z9+bsbPvDTi4/Rd//goqFIidGaZ3vkj5wYH45g6wc8mpRxTMaVe0uvvYefZJPXhPFziLKc05hv8YTO/hchTNZ4z5H9SOjis760VtAAAAAElFTkSuQmCC;" vertex="1" parent="1">
          <mxGeometry x="380" y="440" width="57" height="56" as="geometry" />
        </mxCell>
        <mxCell id="Spx9FryGJ42Kt7Lb2Zxw-50" value="" style="shape=image;verticalLabelPosition=bottom;labelBackgroundColor=default;verticalAlign=top;aspect=fixed;imageAspect=0;image=data:image/png,iVBORw0KGgoAAAANSUhEUgAAAEQAAAAqCAYAAAF96s0OAAAAAXNSR0IArs4c6QAAAARnQU1BAACxjwv8YQUAAAAJcEhZcwAAFxEAABcRAcom8z8AAAjrSURBVFhH7VlvbFvVFfcXNCS0KV+QJvEhfJk0ia3qF9iEorXTtmrKQIq2dSmgim6k+1AopJMIEYsgrIL+gcJkaDOldrL+IU3T0ki0oRmiLC1QQ7IkC63TP27iOLaThQQ5iUsS2/E7u7/z3rXfe7527NTJyraf9JP97j33nHPvu3/OPc9hhntU6999Q4u0jREZRSacEYWCQFLT+BfPZZ8QPXBBizsctW1cIIXwG4vHqe71/fz/5cF5oRVCBu9+pYM2tnvp/sZPUmXMY+N0r6XARjQ0nNKxe+DLyH1v/Z0eO3010RrSNhnFaZwYp/Xo1b4hLXI8TPVGsYDJ4Wg0So6NtfxflrNAyeP1NDk5SZ4I1zHSAibH0BvQXGYRUFLCPbzQLzUoX0FDQJtxrHtEt18vxkD6YLC8m6tSuOssUWo4ai7HE/YGKR6PqMvtlD4/euYalTZdMuxg6G4qG7RcCnN99ecJU3/ln1uhxPpD3WqBHHQPxa4YzTOB6SGnilwMWBiYQoZIJjDKGO2+vj6eKaqx8P3rSx4LoOrsdeK3KcEryCRsf5Uo83g8/D8aE4NpkmUy7IWSeb7ehpFk0sHLVDyU/u5FvWLDE2wVwPOadRsouhA3SqwKwG3n/MnUK372UloQqGp4J6MBCBwOEW3pHOJ2FiV2Yr+Q6wTk7UAhl1NJvnzyQz85slnIl7yhAVjiKoFc5BmeDZh4mKHY+TAW2AXxix2RjRWCI0HtAGZlRQ/RHR2Zbylfoi10QBd0GurVaPbTnVhrdiWdg0F9XpjgPCKGxCy35yPrc9MIVW39vSGdhmY6ryRhE7bZicNBbdZcqeTWN6jl5CmKxWKszAzUl3QSBSamjBKiLrHcM3TkIPvwfM+UslLJ51pTe4JE5UV9Iw4EAkZJGrHEIrWPK/TY+JcbC6advsNH93+crsyGqgGrkmz0hSeMFjq8XnFcitcm62ELNmF7yQVccfJzahyO0/OX47T2gn7gmY3lImTRBm2hA7pUNsCi7CTFoHBEcxwZTSyoKleT7AOAY/HHh7rjKqGVJGy2hWgtO6GCqNxyNLg4V97aT3f8URw7CiWFEDowR6ATug0zhQOHQVuYakVQ0dEc1MLYvkEEG5KyDPWQg3zqEFku8Kqg8BmvFr3vvHpV5Eu0hx7oyxkZmYEw6mefCgVvDVDl5scpmUzyHuBsPqo0omLL0E2+VaiA+vUX9XDNMGmFO6g57/nAqnCN6Il0RIJDOPvZIpy2PItA3L7LRm7O8a/Hez0lB3uwa7jgcDSOaOctihT0jX3BisyQTpae02XKNvwidbBJOP2Zuuxk+0A+u2Vl7SvkuzFkqE/DF01yvdM7a5TAQY1H064jG2FfP4EVlUtSnMbK8mWyNUwVDpwHqkoV1/zkIcvwB0Jhve7h7UaJFb7p2JKHJNsH7tlzlieOudLpPmSJ5OteeNFQrQPO4DIu6+V86Rqd5l8J5eQ2EXZhnx2RO9/LV+MpgTW73jFUWRGYjVkUZaP9bgOU1+yxyMBeateWjkgiHG8cThD2ElU0Bnh6/5n3vQeRW0IER8BYNEaVvWKVCP0ZYb/dETPvfe19QvTW6F+kjUJBoTss5NEO7aEH+lR2mLkcyUZ5NchG1Kva5eRyHFkR3i6O6IehomK12e6nEodzcNavqlwtsn2Jg0MLX6iEVpps147jY9rPG67NzRQjNMxF6HdeiU7DnmFaDbwv9/B8x77LM5zLVCkrlNADfdDbNkHfNkwVhpNh+u7bwcSrzcOx8LFQMoHUgtwzEFzDCAJjWYZ6yEEe7dDeULUygAFE5G+HtVcR+h0LawlXQIsikH6sX0tgV31QHIzYYe2HaqFEe+iBPuiFftiBPdiFffgBf1al480h7dDRsDYHJ3Cwcgdxun9/HVU9VU1lO3bnn94thAiHN9aynUL4rd/u5AAA/sLvppB2YtkD1RrUfogbSM2gNmM/b3God/akU9QqIETyfPoZlT1X3GCSuXknVW6p4q8KSwFBDPw1t0d/0C/0D/00upwJhNCuUW3glz3avFlBPnQOTFL0K/3Skg08SN09+iBhZm14gsoqKsnldnP2pnNckY6u76CS7/2AXC5X1ggNSCwmqVNcdeSdBtx1ZZ68gXG2W3UuaNVrIvp7YES7mEriAeJy89ojvVpU1WA5hGPtngERHiYMl3Oj7qrRdvtBqt7xB2UezgzfTJzDTbvdWyH6j3HgAcE6UwkVympv4TS/VTMx1V3XoxSYniPXqP6skismMQ4cmzWP6jfXFaPYGEse+Cm1tLTwrIlEIuQ62kql28RGrJAv/c12qt7zZv588zBVn+7jAVbpy5ctYU2PEe96oZ32Ds7R3e+rBQum2PjKf72JfD6fMcnVwHXR0gkxcE6n06jNDSyrsqfqi3Kyod/o/9NdgSQvGRk94Qa2d/ArquheVDYEx8bH2SFcqtvPnGWnSn70qyU3vpjY+HJOfbGBeodHKTCzwHL2pVTXG6HJiPVibwZmXvvpDird4bS0y0X0E/2VN089620aEDO/8+dz9KxngvYPJUTDpCX13tn1keFGbrS/10mlm2syU2tFIBJRHl8oI0NmxuTUFO3qnWB5+F/+WZL7g36hf/Y+5xwQOxH440vl1g9GaL9vgfZei9OjfRrneEr+pnZ6tfn6MNF74vitvaKxf/gOsq0rSA82edLZlxwsaECWYsnOd2ltwwW+QyABUt8foebAIufB8VbqB+P8PRlhd6FEO7SHHs6rC73QDzuwB7uwr/KrEBZ1QP4b+P8BsfHJD0f0ZNU36k5pjtoTovB/m9986d1ka0jb5HAPL/QXK/HxdSX6j3HgGQLgE+cbl2enirE5fZ2I/u67ND2O/htDYQVC14ND86f+9I/JoqXLbjciBkH/0E8O1QsBkipN/tiJv/pjN585H4jiTEeorzJ0uxF+wl/4LZbDDPqRdSbcKpBcOTKaOIB1h7wlssI1H4dmkNPEzOJvYQoni0XolzlU2IV9+AF/kD/Nmfz5TwKJF1ypwbYw1R4PU72ZclAl0Rm7DNpJHZZEzorA4fg32v85inOmpMYAAAAASUVORK5CYII=;" vertex="1" parent="1">
          <mxGeometry x="224" y="438" width="68" height="42" as="geometry" />
        </mxCell>
        <mxCell id="Spx9FryGJ42Kt7Lb2Zxw-51" value="" style="shape=image;verticalLabelPosition=bottom;labelBackgroundColor=default;verticalAlign=top;aspect=fixed;imageAspect=0;image=data:image/png,iVBORw0KGgoAAAANSUhEUgAAAEkAAAAoCAMAAAHyAheHAAAAAXNSR0IArs4c6QAAAARnQU1BAACxjwv8YQUAAAKCUExURQAAAJ/f/6/f/6rq/6zm/6rk/6jk/6bm/5XV7pXg/6rk/5fY8pfi/5rZ85rg/6nl/5Db/6nl/6jm/5DO643P6Y3e/5HQ65Hf/47f/5HR7JHR7JHe/4/P64/e/5XV75Xh/5Hf/47P6o7e/5PS7ZPf/5Xg/5He/4nL5ond/47P6pjY8oPG4YPb/3e82HfX/3G31XHW/2bT/2uy0Guz0GvJ8GvU/0XJ/0qYuUrL/1CdvFDL/1WhwFrQ/2683XLC4nzZ/33Z/4PR8YPb/4fU84vW9ovY94zY+I3d/pDc/JDf/5LX85Pe/QALEAASGQAVHgAaJAAeKgAjMQAtPwAyRwA5UAA/WQBGYwBNbQBVeABagABdgwBljwBtmwB3qACAtQCJwwCU0QCW1QCe4ACp7wC0/wVehAW1/wpiiAu3/xAWGBAdIhBSbRBfgBB2oRC4/xC5/xVskBW6/xu8/x50lx8iIx9ddh+9/yC9/yW+/yd7nit9oCvB/y4wMC43Oi6Qty7B/zCCpDXE/zrF/zxebDxxiDyt3DzF/0DG/0Gdw0pLS0pqdkrK/0uYuFWgwFW+6lXN/1dXV1fN/1rO/2DQ/2HQ/mRkZGR5gWTR/2WtzHDV/3XW/3/S9YXI44eHh4fc/5De/pKSkpKWmJLN5ZTe/ZXc+pre+5zi/5/h/aHk/6ampqbl/6+wsK+wsq/d8K/n/7jP2cDAwMDAwcDLz8Di8MDt/8fLzcfv/87OztXV1dXl7NXy/9vb29vd3tvz/dv0/+Hh4eHk5ebm5ubu8ub3/+vr6+v5/+/v7+/5/u/6//Pz8/P7/vP7//b29vb7/fb8/vn5+fn9/vv7+/v9/v39/f7+/v///zcN5/wAAABMdFJOUwAIEBgoMDg8W1tgYmJqanR6gJCXo6OpqbXO19fa2tvb4e/v8PDx8/j4+Pj5+fv7/Pz9/f39/f7+/v7+/v7+/v7+/v7+/v7+/v7+/v5XUo76AAAACXBIWXMAABcRAAAXEQHKJvM/AAADoElEQVQ4T6WVi1tURRiHB1cIyVtqUd4SKW9JViaamiamQaGlknUCW4JvUUoRDRU1xStqoqJiWmtJeUdTKxS6GF66rGmlwvw/frcDHFx3fZb3eWBn5rzzm3PmzMwxxgzYg2zf0wuLLdYCwKYkY9ZTqQKcJPPyR4zjmNYimsZQL8QYsOj+Ao5Jp0I+oCkeiVrqz126AOzA/DL00DyKwxisluCftGDXJPOsBgufOu0GVhynC/b0tk3iAQjtKOynlmWQV++O8S/epzEj3AEZGqEnQA4W/6DmX+FVahKHpBDAa3QfGqpgSw/3+YSg4wxvfWQh6JTieFoRgnQHHZqoxaUb35TLXKGh+ROqTaE5IyZAYXaTbZGLLALMsfYE/mTQLBKDqLGkeS/9gD+Xeb8xn2qLVuPdk+Vbhg9ea/9hx+WAtaEKgEx02BpNjddsvbCTHSWdHafU1+F9eMB5IQbieNGs8XznUaxEliJbI8UxZsbuB3KM1pGXffpyw3BKFfO8PjvzgbyC2fYM1SaPVecZqr1zkf4DFNyRpURUwPKFKiUDzP/a2s0c8K6o0GBDtCGqHJHii+A77YmcE2frl/zzuiNS3Fqqfa/LWd5zbtkXXMvC6WJpHNX8S7gRZmkesgWghiaepKFoFDdZGr8VPzp1AOULVXoS4DfpSVwX6TwaAEVV5KCUUIS1ShvSBUPXWpnGjpNivtJpDcMRcV7qsEu87GJnTVx0KRCPz6YN4WDpCZokbQgHSankRJHS2IksbRAnohTo+hBSX3WMLuhwjFLlPh6fqK8kCoWfnV2sRWLqm+4ZpMSPoNfNFL63QEtCXvVfHmjJtPywgq9tnOmM9SY9zesY/PPKTt+w/3lWIdSH2vj7Bq89+ztvg0VZeJZ5krq/gFvu7erGZtE8yM5R5n9r79ZXagVq8NT3JPmG4uGIrPwJv4v2pq5mQXeiUODXArPqLd4r7ZKSJ+glouQbLRAFZRc8/G/t1c8L9GKG7Ke2pITROtP+nOLaK5ekLHz4ozxfB/7EYxy2TdccNyluSLlkNJHTvC67HbmSp3x8Cz8FdRSCLH2DvhoKJ/V+kS9U/MyDebntfYEr9ZeQmXbBJN+wpXoJOXjZ2/PBlGfKTAuB5xKMOR6MhZOHNIMZz2dBhK9LBIJyLDGlKT4K6nzSmEc5p9NJawZrTieTAsPpRFU6k/RKPw1hYk8qTfV+yWNOSkvUBJcYkw4/pf3beCwm+jyi3V2MuQcUSk9kq2ywtgAAAABJRU5ErkJggg==;" vertex="1" parent="1">
          <mxGeometry x="55" y="440" width="73" height="40" as="geometry" />
        </mxCell>
        <mxCell id="Spx9FryGJ42Kt7Lb2Zxw-52" value="" style="shape=image;verticalLabelPosition=bottom;labelBackgroundColor=default;verticalAlign=top;aspect=fixed;imageAspect=0;image=data:image/png,iVBORw0KGgoAAAANSUhEUgAAAEQAAAAqCAYAAAF96s0OAAAAAXNSR0IArs4c6QAAAARnQU1BAACxjwv8YQUAAAAJcEhZcwAAFxEAABcRAcom8z8AAAjrSURBVFhH7VlvbFvVFfcXNCS0KV+QJvEhfJk0ia3qF9iEorXTtmrKQIq2dSmgim6k+1AopJMIEYsgrIL+gcJkaDOldrL+IU3T0ki0oRmiLC1QQ7IkC63TP27iOLaThQQ5iUsS2/E7u7/z3rXfe7527NTJyraf9JP97j33nHPvu3/OPc9hhntU6999Q4u0jREZRSacEYWCQFLT+BfPZZ8QPXBBizsctW1cIIXwG4vHqe71/fz/5cF5oRVCBu9+pYM2tnvp/sZPUmXMY+N0r6XARjQ0nNKxe+DLyH1v/Z0eO3010RrSNhnFaZwYp/Xo1b4hLXI8TPVGsYDJ4Wg0So6NtfxflrNAyeP1NDk5SZ4I1zHSAibH0BvQXGYRUFLCPbzQLzUoX0FDQJtxrHtEt18vxkD6YLC8m6tSuOssUWo4ai7HE/YGKR6PqMvtlD4/euYalTZdMuxg6G4qG7RcCnN99ecJU3/ln1uhxPpD3WqBHHQPxa4YzTOB6SGnilwMWBiYQoZIJjDKGO2+vj6eKaqx8P3rSx4LoOrsdeK3KcEryCRsf5Uo83g8/D8aE4NpkmUy7IWSeb7ehpFk0sHLVDyU/u5FvWLDE2wVwPOadRsouhA3SqwKwG3n/MnUK372UloQqGp4J6MBCBwOEW3pHOJ2FiV2Yr+Q6wTk7UAhl1NJvnzyQz85slnIl7yhAVjiKoFc5BmeDZh4mKHY+TAW2AXxix2RjRWCI0HtAGZlRQ/RHR2Zbylfoi10QBd0GurVaPbTnVhrdiWdg0F9XpjgPCKGxCy35yPrc9MIVW39vSGdhmY6ryRhE7bZicNBbdZcqeTWN6jl5CmKxWKszAzUl3QSBSamjBKiLrHcM3TkIPvwfM+UslLJ51pTe4JE5UV9Iw4EAkZJGrHEIrWPK/TY+JcbC6advsNH93+crsyGqgGrkmz0hSeMFjq8XnFcitcm62ELNmF7yQVccfJzahyO0/OX47T2gn7gmY3lImTRBm2hA7pUNsCi7CTFoHBEcxwZTSyoKleT7AOAY/HHh7rjKqGVJGy2hWgtO6GCqNxyNLg4V97aT3f8URw7CiWFEDowR6ATug0zhQOHQVuYakVQ0dEc1MLYvkEEG5KyDPWQg3zqEFku8Kqg8BmvFr3vvHpV5Eu0hx7oyxkZmYEw6mefCgVvDVDl5scpmUzyHuBsPqo0omLL0E2+VaiA+vUX9XDNMGmFO6g57/nAqnCN6Il0RIJDOPvZIpy2PItA3L7LRm7O8a/Hez0lB3uwa7jgcDSOaOctihT0jX3BisyQTpae02XKNvwidbBJOP2Zuuxk+0A+u2Vl7SvkuzFkqE/DF01yvdM7a5TAQY1H064jG2FfP4EVlUtSnMbK8mWyNUwVDpwHqkoV1/zkIcvwB0Jhve7h7UaJFb7p2JKHJNsH7tlzlieOudLpPmSJ5OteeNFQrQPO4DIu6+V86Rqd5l8J5eQ2EXZhnx2RO9/LV+MpgTW73jFUWRGYjVkUZaP9bgOU1+yxyMBeateWjkgiHG8cThD2ElU0Bnh6/5n3vQeRW0IER8BYNEaVvWKVCP0ZYb/dETPvfe19QvTW6F+kjUJBoTss5NEO7aEH+lR2mLkcyUZ5NchG1Kva5eRyHFkR3i6O6IehomK12e6nEodzcNavqlwtsn2Jg0MLX6iEVpps147jY9rPG67NzRQjNMxF6HdeiU7DnmFaDbwv9/B8x77LM5zLVCkrlNADfdDbNkHfNkwVhpNh+u7bwcSrzcOx8LFQMoHUgtwzEFzDCAJjWYZ6yEEe7dDeULUygAFE5G+HtVcR+h0LawlXQIsikH6sX0tgV31QHIzYYe2HaqFEe+iBPuiFftiBPdiFffgBf1al480h7dDRsDYHJ3Cwcgdxun9/HVU9VU1lO3bnn94thAiHN9aynUL4rd/u5AAA/sLvppB2YtkD1RrUfogbSM2gNmM/b3God/akU9QqIETyfPoZlT1X3GCSuXknVW6p4q8KSwFBDPw1t0d/0C/0D/00upwJhNCuUW3glz3avFlBPnQOTFL0K/3Skg08SN09+iBhZm14gsoqKsnldnP2pnNckY6u76CS7/2AXC5X1ggNSCwmqVNcdeSdBtx1ZZ68gXG2W3UuaNVrIvp7YES7mEriAeJy89ojvVpU1WA5hGPtngERHiYMl3Oj7qrRdvtBqt7xB2UezgzfTJzDTbvdWyH6j3HgAcE6UwkVympv4TS/VTMx1V3XoxSYniPXqP6skismMQ4cmzWP6jfXFaPYGEse+Cm1tLTwrIlEIuQ62kql28RGrJAv/c12qt7zZv588zBVn+7jAVbpy5ctYU2PEe96oZ32Ds7R3e+rBQum2PjKf72JfD6fMcnVwHXR0gkxcE6n06jNDSyrsqfqi3Kyod/o/9NdgSQvGRk94Qa2d/ArquheVDYEx8bH2SFcqtvPnGWnSn70qyU3vpjY+HJOfbGBeodHKTCzwHL2pVTXG6HJiPVibwZmXvvpDird4bS0y0X0E/2VN089620aEDO/8+dz9KxngvYPJUTDpCX13tn1keFGbrS/10mlm2syU2tFIBJRHl8oI0NmxuTUFO3qnWB5+F/+WZL7g36hf/Y+5xwQOxH440vl1g9GaL9vgfZei9OjfRrneEr+pnZ6tfn6MNF74vitvaKxf/gOsq0rSA82edLZlxwsaECWYsnOd2ltwwW+QyABUt8foebAIufB8VbqB+P8PRlhd6FEO7SHHs6rC73QDzuwB7uwr/KrEBZ1QP4b+P8BsfHJD0f0ZNU36k5pjtoTovB/m9986d1ka0jb5HAPL/QXK/HxdSX6j3HgGQLgE+cbl2enirE5fZ2I/u67ND2O/htDYQVC14ND86f+9I/JoqXLbjciBkH/0E8O1QsBkipN/tiJv/pjN585H4jiTEeorzJ0uxF+wl/4LZbDDPqRdSbcKpBcOTKaOIB1h7wlssI1H4dmkNPEzOJvYQoni0XolzlU2IV9+AF/kD/Nmfz5TwKJF1ypwbYw1R4PU72ZclAl0Rm7DNpJHZZEzorA4fg32v85inOmpMYAAAAASUVORK5CYII=;" vertex="1" parent="1">
          <mxGeometry x="-6.5" y="312" width="68" height="42" as="geometry" />
        </mxCell>
        <mxCell id="Spx9FryGJ42Kt7Lb2Zxw-86" style="edgeStyle=orthogonalEdgeStyle;rounded=0;orthogonalLoop=1;jettySize=auto;html=1;exitX=0.25;exitY=1;exitDx=0;exitDy=0;entryX=0.07;entryY=0.4;entryDx=0;entryDy=0;entryPerimeter=0;" edge="1" parent="1" source="Spx9FryGJ42Kt7Lb2Zxw-53" target="Spx9FryGJ42Kt7Lb2Zxw-85">
          <mxGeometry relative="1" as="geometry" />
        </mxCell>
        <mxCell id="Spx9FryGJ42Kt7Lb2Zxw-53" value="" style="shape=image;verticalLabelPosition=bottom;labelBackgroundColor=default;verticalAlign=top;aspect=fixed;imageAspect=0;image=data:image/png,iVBORw0KGgoAAAANSUhEUgAAAC0AAAA/CAMAAAE03YGuAAAAAXNSR0IArs4c6QAAAARnQU1BAACxjwv8YQUAAADkUExURQAAAEBAQFBQMEhIOEhIN0lJNlNTOlBQPEpKNk5OO1BQOkpKNl5eSlBQO1BQO09POlJSPV1dSF5eS11dSlJSPlhYQ1dXQVZWQltbRGBgSEtLOFZWQVpaSFtbRFtbR1tbSGNjSWRkT2ZmS3h4ZJGRfklJNkxMN0xMOVFRPldXQ19fRmBgR2FhR2JiSGVlT2dnTGhoVXh4WXl5Y3p6WoCAaYKCboeHc4yMcpKSeJWVf5WVgp2dip+fjaOjkKmpkKmplqysmLe3nbe3pb29rcHBrsHBs8nJtsvLwdLSwtzc0eDg1O3t54tCnz4AAAAldFJOUwAIECBKUFNzgI+QmKmttrjAxdrr8/T5+vz9/v7+/v7+/v7+/v5r5SQbAAAACXBIWXMAABcRAAAXEQHKJvM/AAABQElEQVQ4T+3UaVODMBAG4Fett+KF91nvC1DjVS9Ka734///HbFzoIh2a0S/i9PmSZPsWkswOwB6BG8dRpOBGmtVg/jeJOK5HkQOq2Q2VMLHtwH3RbugHpRcmQX69WACfy8AdvzF8VGjEGmV8hSa9nuc0GH9irvfff0+7y1qXh0z5ig5vDkPMfZLiOi+E/13/yHlVy8DgSM64vn1tgttH2Adm+TaFaoBFbjBhVQV44h0IHpWpBw0ucrnFD6xx8Udlngu9Ms+FMpffuX8FT013Sh8PA9zUUuWrwftmdrmFCu0cTAEDcyEvizxvbKnAwfzapoXDE6Uo7XbYeJ7vJelm0viJWvplS2XSb1LXdFZhuvHgfXPLmbZ2mguFSp/mD2UXZT9lL50qffrq2sIZpU9HrZ99vjSmP7DuxaWFo5UhAPgEPZ2DgMNpGk8AAAAASUVORK5CYII=;" vertex="1" parent="1">
          <mxGeometry x="5" y="80" width="45" height="63" as="geometry" />
        </mxCell>
        <mxCell id="Spx9FryGJ42Kt7Lb2Zxw-87" style="edgeStyle=orthogonalEdgeStyle;rounded=0;orthogonalLoop=1;jettySize=auto;html=1;exitX=0.25;exitY=1;exitDx=0;exitDy=0;entryX=0.222;entryY=0.255;entryDx=0;entryDy=0;entryPerimeter=0;" edge="1" parent="1" source="Spx9FryGJ42Kt7Lb2Zxw-54" target="Spx9FryGJ42Kt7Lb2Zxw-85">
          <mxGeometry relative="1" as="geometry" />
        </mxCell>
        <mxCell id="Spx9FryGJ42Kt7Lb2Zxw-54" value="" style="shape=image;verticalLabelPosition=bottom;labelBackgroundColor=default;verticalAlign=top;aspect=fixed;imageAspect=0;image=data:image/png,iVBORw0KGgoAAAANSUhEUgAAAC0AAAA/CAMAAAE03YGuAAAAAXNSR0IArs4c6QAAAARnQU1BAACxjwv8YQUAAADkUExURQAAAEBAQFBQMEhIOEhIN0lJNlNTOlBQPEpKNk5OO1BQOkpKNl5eSlBQO1BQO09POlJSPV1dSF5eS11dSlJSPlhYQ1dXQVZWQltbRGBgSEtLOFZWQVpaSFtbRFtbR1tbSGNjSWRkT2ZmS3h4ZJGRfklJNkxMN0xMOVFRPldXQ19fRmBgR2FhR2JiSGVlT2dnTGhoVXh4WXl5Y3p6WoCAaYKCboeHc4yMcpKSeJWVf5WVgp2dip+fjaOjkKmpkKmplqysmLe3nbe3pb29rcHBrsHBs8nJtsvLwdLSwtzc0eDg1O3t54tCnz4AAAAldFJOUwAIECBKUFNzgI+QmKmttrjAxdrr8/T5+vz9/v7+/v7+/v7+/v5r5SQbAAAACXBIWXMAABcRAAAXEQHKJvM/AAABQElEQVQ4T+3UaVODMBAG4Fett+KF91nvC1DjVS9Ka734///HbFzoIh2a0S/i9PmSZPsWkswOwB6BG8dRpOBGmtVg/jeJOK5HkQOq2Q2VMLHtwH3RbugHpRcmQX69WACfy8AdvzF8VGjEGmV8hSa9nuc0GH9irvfff0+7y1qXh0z5ig5vDkPMfZLiOi+E/13/yHlVy8DgSM64vn1tgttH2Adm+TaFaoBFbjBhVQV44h0IHpWpBw0ucrnFD6xx8Udlngu9Ms+FMpffuX8FT013Sh8PA9zUUuWrwftmdrmFCu0cTAEDcyEvizxvbKnAwfzapoXDE6Uo7XbYeJ7vJelm0viJWvplS2XSb1LXdFZhuvHgfXPLmbZ2mguFSp/mD2UXZT9lL50qffrq2sIZpU9HrZ99vjSmP7DuxaWFo5UhAPgEPZ2DgMNpGk8AAAAASUVORK5CYII=;" vertex="1" parent="1">
          <mxGeometry x="160" y="80" width="45" height="63" as="geometry" />
        </mxCell>
        <mxCell id="Spx9FryGJ42Kt7Lb2Zxw-88" style="edgeStyle=orthogonalEdgeStyle;rounded=0;orthogonalLoop=1;jettySize=auto;html=1;exitX=0.25;exitY=1;exitDx=0;exitDy=0;" edge="1" parent="1" source="Spx9FryGJ42Kt7Lb2Zxw-55" target="Spx9FryGJ42Kt7Lb2Zxw-85">
          <mxGeometry relative="1" as="geometry" />
        </mxCell>
        <mxCell id="Spx9FryGJ42Kt7Lb2Zxw-55" value="" style="shape=image;verticalLabelPosition=bottom;labelBackgroundColor=default;verticalAlign=top;aspect=fixed;imageAspect=0;image=data:image/png,iVBORw0KGgoAAAANSUhEUgAAAC0AAAA/CAMAAAE03YGuAAAAAXNSR0IArs4c6QAAAARnQU1BAACxjwv8YQUAAADkUExURQAAAEBAQFBQMEhIOEhIN0lJNlNTOlBQPEpKNk5OO1BQOkpKNl5eSlBQO1BQO09POlJSPV1dSF5eS11dSlJSPlhYQ1dXQVZWQltbRGBgSEtLOFZWQVpaSFtbRFtbR1tbSGNjSWRkT2ZmS3h4ZJGRfklJNkxMN0xMOVFRPldXQ19fRmBgR2FhR2JiSGVlT2dnTGhoVXh4WXl5Y3p6WoCAaYKCboeHc4yMcpKSeJWVf5WVgp2dip+fjaOjkKmpkKmplqysmLe3nbe3pb29rcHBrsHBs8nJtsvLwdLSwtzc0eDg1O3t54tCnz4AAAAldFJOUwAIECBKUFNzgI+QmKmttrjAxdrr8/T5+vz9/v7+/v7+/v7+/v5r5SQbAAAACXBIWXMAABcRAAAXEQHKJvM/AAABQElEQVQ4T+3UaVODMBAG4Fett+KF91nvC1DjVS9Ka734///HbFzoIh2a0S/i9PmSZPsWkswOwB6BG8dRpOBGmtVg/jeJOK5HkQOq2Q2VMLHtwH3RbugHpRcmQX69WACfy8AdvzF8VGjEGmV8hSa9nuc0GH9irvfff0+7y1qXh0z5ig5vDkPMfZLiOi+E/13/yHlVy8DgSM64vn1tgttH2Adm+TaFaoBFbjBhVQV44h0IHpWpBw0ucrnFD6xx8Udlngu9Ms+FMpffuX8FT013Sh8PA9zUUuWrwftmdrmFCu0cTAEDcyEvizxvbKnAwfzapoXDE6Uo7XbYeJ7vJelm0viJWvplS2XSb1LXdFZhuvHgfXPLmbZ2mguFSp/mD2UXZT9lL50qffrq2sIZpU9HrZ99vjSmP7DuxaWFo5UhAPgEPZ2DgMNpGk8AAAAASUVORK5CYII=;" vertex="1" parent="1">
          <mxGeometry x="317.5" y="80" width="45" height="63" as="geometry" />
        </mxCell>
        <mxCell id="Spx9FryGJ42Kt7Lb2Zxw-89" style="edgeStyle=orthogonalEdgeStyle;rounded=0;orthogonalLoop=1;jettySize=auto;html=1;exitX=0;exitY=1;exitDx=0;exitDy=0;entryX=0.693;entryY=0.165;entryDx=0;entryDy=0;entryPerimeter=0;" edge="1" parent="1" source="Spx9FryGJ42Kt7Lb2Zxw-56" target="Spx9FryGJ42Kt7Lb2Zxw-85">
          <mxGeometry relative="1" as="geometry" />
        </mxCell>
        <mxCell id="Spx9FryGJ42Kt7Lb2Zxw-56" value="" style="shape=image;verticalLabelPosition=bottom;labelBackgroundColor=default;verticalAlign=top;aspect=fixed;imageAspect=0;image=data:image/png,iVBORw0KGgoAAAANSUhEUgAAAC0AAAA/CAMAAAE03YGuAAAAAXNSR0IArs4c6QAAAARnQU1BAACxjwv8YQUAAADkUExURQAAAEBAQFBQMEhIOEhIN0lJNlNTOlBQPEpKNk5OO1BQOkpKNl5eSlBQO1BQO09POlJSPV1dSF5eS11dSlJSPlhYQ1dXQVZWQltbRGBgSEtLOFZWQVpaSFtbRFtbR1tbSGNjSWRkT2ZmS3h4ZJGRfklJNkxMN0xMOVFRPldXQ19fRmBgR2FhR2JiSGVlT2dnTGhoVXh4WXl5Y3p6WoCAaYKCboeHc4yMcpKSeJWVf5WVgp2dip+fjaOjkKmpkKmplqysmLe3nbe3pb29rcHBrsHBs8nJtsvLwdLSwtzc0eDg1O3t54tCnz4AAAAldFJOUwAIECBKUFNzgI+QmKmttrjAxdrr8/T5+vz9/v7+/v7+/v7+/v5r5SQbAAAACXBIWXMAABcRAAAXEQHKJvM/AAABQElEQVQ4T+3UaVODMBAG4Fett+KF91nvC1DjVS9Ka734///HbFzoIh2a0S/i9PmSZPsWkswOwB6BG8dRpOBGmtVg/jeJOK5HkQOq2Q2VMLHtwH3RbugHpRcmQX69WACfy8AdvzF8VGjEGmV8hSa9nuc0GH9irvfff0+7y1qXh0z5ig5vDkPMfZLiOi+E/13/yHlVy8DgSM64vn1tgttH2Adm+TaFaoBFbjBhVQV44h0IHpWpBw0ucrnFD6xx8Udlngu9Ms+FMpffuX8FT013Sh8PA9zUUuWrwftmdrmFCu0cTAEDcyEvizxvbKnAwfzapoXDE6Uo7XbYeJ7vJelm0viJWvplS2XSb1LXdFZhuvHgfXPLmbZ2mguFSp/mD2UXZT9lL50qffrq2sIZpU9HrZ99vjSmP7DuxaWFo5UhAPgEPZ2DgMNpGk8AAAAASUVORK5CYII=;" vertex="1" parent="1">
          <mxGeometry x="437.5" y="80" width="45" height="63" as="geometry" />
        </mxCell>
        <mxCell id="Spx9FryGJ42Kt7Lb2Zxw-90" style="edgeStyle=orthogonalEdgeStyle;rounded=0;orthogonalLoop=1;jettySize=auto;html=1;exitX=0;exitY=1;exitDx=0;exitDy=0;entryX=0.88;entryY=0.25;entryDx=0;entryDy=0;entryPerimeter=0;" edge="1" parent="1" source="Spx9FryGJ42Kt7Lb2Zxw-58" target="Spx9FryGJ42Kt7Lb2Zxw-85">
          <mxGeometry relative="1" as="geometry" />
        </mxCell>
        <mxCell id="Spx9FryGJ42Kt7Lb2Zxw-58" value="" style="shape=image;verticalLabelPosition=bottom;labelBackgroundColor=default;verticalAlign=top;aspect=fixed;imageAspect=0;image=data:image/png,iVBORw0KGgoAAAANSUhEUgAAAC0AAAA/CAMAAAE03YGuAAAAAXNSR0IArs4c6QAAAARnQU1BAACxjwv8YQUAAADkUExURQAAAEBAQFBQMEhIOEhIN0lJNlNTOlBQPEpKNk5OO1BQOkpKNl5eSlBQO1BQO09POlJSPV1dSF5eS11dSlJSPlhYQ1dXQVZWQltbRGBgSEtLOFZWQVpaSFtbRFtbR1tbSGNjSWRkT2ZmS3h4ZJGRfklJNkxMN0xMOVFRPldXQ19fRmBgR2FhR2JiSGVlT2dnTGhoVXh4WXl5Y3p6WoCAaYKCboeHc4yMcpKSeJWVf5WVgp2dip+fjaOjkKmpkKmplqysmLe3nbe3pb29rcHBrsHBs8nJtsvLwdLSwtzc0eDg1O3t54tCnz4AAAAldFJOUwAIECBKUFNzgI+QmKmttrjAxdrr8/T5+vz9/v7+/v7+/v7+/v5r5SQbAAAACXBIWXMAABcRAAAXEQHKJvM/AAABQElEQVQ4T+3UaVODMBAG4Fett+KF91nvC1DjVS9Ka734///HbFzoIh2a0S/i9PmSZPsWkswOwB6BG8dRpOBGmtVg/jeJOK5HkQOq2Q2VMLHtwH3RbugHpRcmQX69WACfy8AdvzF8VGjEGmV8hSa9nuc0GH9irvfff0+7y1qXh0z5ig5vDkPMfZLiOi+E/13/yHlVy8DgSM64vn1tgttH2Adm+TaFaoBFbjBhVQV44h0IHpWpBw0ucrnFD6xx8Udlngu9Ms+FMpffuX8FT013Sh8PA9zUUuWrwftmdrmFCu0cTAEDcyEvizxvbKnAwfzapoXDE6Uo7XbYeJ7vJelm0viJWvplS2XSb1LXdFZhuvHgfXPLmbZ2mguFSp/mD2UXZT9lL50qffrq2sIZpU9HrZ99vjSmP7DuxaWFo5UhAPgEPZ2DgMNpGk8AAAAASUVORK5CYII=;" vertex="1" parent="1">
          <mxGeometry x="535" y="80" width="45" height="63" as="geometry" />
        </mxCell>
        <mxCell id="Spx9FryGJ42Kt7Lb2Zxw-60" value="" style="endArrow=none;html=1;rounded=0;entryX=0.39;entryY=0.994;entryDx=0;entryDy=0;entryPerimeter=0;" edge="1" parent="1" target="Spx9FryGJ42Kt7Lb2Zxw-47">
          <mxGeometry width="50" height="50" relative="1" as="geometry">
            <mxPoint x="410" y="720" as="sourcePoint" />
            <mxPoint x="460" y="670" as="targetPoint" />
          </mxGeometry>
        </mxCell>
        <mxCell id="Spx9FryGJ42Kt7Lb2Zxw-62" value="" style="endArrow=none;html=1;rounded=0;exitX=0.5;exitY=0;exitDx=0;exitDy=0;entryX=0.25;entryY=1;entryDx=0;entryDy=0;" edge="1" parent="1" source="Spx9FryGJ42Kt7Lb2Zxw-47" target="Spx9FryGJ42Kt7Lb2Zxw-48">
          <mxGeometry width="50" height="50" relative="1" as="geometry">
            <mxPoint x="365" y="546" as="sourcePoint" />
            <mxPoint x="415" y="496" as="targetPoint" />
          </mxGeometry>
        </mxCell>
        <mxCell id="Spx9FryGJ42Kt7Lb2Zxw-63" value="" style="endArrow=none;html=1;rounded=0;exitX=1;exitY=0.5;exitDx=0;exitDy=0;" edge="1" parent="1" source="Spx9FryGJ42Kt7Lb2Zxw-50">
          <mxGeometry width="50" height="50" relative="1" as="geometry">
            <mxPoint x="331.5" y="520" as="sourcePoint" />
            <mxPoint x="381.5" y="470" as="targetPoint" />
          </mxGeometry>
        </mxCell>
        <mxCell id="Spx9FryGJ42Kt7Lb2Zxw-64" value="" style="endArrow=none;html=1;rounded=0;exitX=1;exitY=0.5;exitDx=0;exitDy=0;" edge="1" parent="1" source="Spx9FryGJ42Kt7Lb2Zxw-51">
          <mxGeometry width="50" height="50" relative="1" as="geometry">
            <mxPoint x="174" y="510" as="sourcePoint" />
            <mxPoint x="224" y="460" as="targetPoint" />
          </mxGeometry>
        </mxCell>
        <mxCell id="Spx9FryGJ42Kt7Lb2Zxw-65" value="" style="endArrow=none;html=1;rounded=0;exitX=1;exitY=0.25;exitDx=0;exitDy=0;" edge="1" parent="1" source="Spx9FryGJ42Kt7Lb2Zxw-52">
          <mxGeometry width="50" height="50" relative="1" as="geometry">
            <mxPoint x="10" y="510" as="sourcePoint" />
            <mxPoint x="60" y="460" as="targetPoint" />
          </mxGeometry>
        </mxCell>
        <mxCell id="Spx9FryGJ42Kt7Lb2Zxw-66" value="DMZ" style="text;html=1;align=center;verticalAlign=middle;resizable=0;points=[];autosize=1;strokeColor=none;fillColor=none;" vertex="1" parent="1">
          <mxGeometry y="360" width="50" height="30" as="geometry" />
        </mxCell>
        <mxCell id="Spx9FryGJ42Kt7Lb2Zxw-67" value="SW-Backbone" style="text;html=1;align=center;verticalAlign=middle;resizable=0;points=[];autosize=1;strokeColor=none;fillColor=none;" vertex="1" parent="1">
          <mxGeometry x="30" y="490" width="100" height="30" as="geometry" />
        </mxCell>
        <mxCell id="Spx9FryGJ42Kt7Lb2Zxw-68" value="Edge" style="text;html=1;align=center;verticalAlign=middle;resizable=0;points=[];autosize=1;strokeColor=none;fillColor=none;" vertex="1" parent="1">
          <mxGeometry x="225" y="488" width="50" height="30" as="geometry" />
        </mxCell>
        <mxCell id="Spx9FryGJ42Kt7Lb2Zxw-69" value="MLS" style="text;html=1;align=center;verticalAlign=middle;resizable=0;points=[];autosize=1;strokeColor=none;fillColor=none;" vertex="1" parent="1">
          <mxGeometry x="395" y="498" width="50" height="30" as="geometry" />
        </mxCell>
        <mxCell id="Spx9FryGJ42Kt7Lb2Zxw-70" value="&lt;br&gt;Core" style="text;html=1;align=center;verticalAlign=middle;resizable=0;points=[];autosize=1;strokeColor=none;fillColor=none;" vertex="1" parent="1">
          <mxGeometry x="400" y="600" width="50" height="40" as="geometry" />
        </mxCell>
        <mxCell id="Spx9FryGJ42Kt7Lb2Zxw-71" value="G3/1" style="text;html=1;align=center;verticalAlign=middle;resizable=0;points=[];autosize=1;strokeColor=none;fillColor=none;" vertex="1" parent="1">
          <mxGeometry x="420" y="540" width="50" height="30" as="geometry" />
        </mxCell>
        <mxCell id="Spx9FryGJ42Kt7Lb2Zxw-72" value="G1/0/2" style="text;html=1;align=center;verticalAlign=middle;resizable=0;points=[];autosize=1;strokeColor=none;fillColor=none;" vertex="1" parent="1">
          <mxGeometry x="410" y="510" width="60" height="30" as="geometry" />
        </mxCell>
        <mxCell id="Spx9FryGJ42Kt7Lb2Zxw-73" value="G1/0/1" style="text;html=1;align=center;verticalAlign=middle;resizable=0;points=[];autosize=1;strokeColor=none;fillColor=none;" vertex="1" parent="1">
          <mxGeometry x="325" y="488" width="60" height="30" as="geometry" />
        </mxCell>
        <mxCell id="Spx9FryGJ42Kt7Lb2Zxw-74" value="G0/0/0" style="text;html=1;align=center;verticalAlign=middle;resizable=0;points=[];autosize=1;strokeColor=none;fillColor=none;" vertex="1" parent="1">
          <mxGeometry x="270" y="478" width="60" height="30" as="geometry" />
        </mxCell>
        <mxCell id="Spx9FryGJ42Kt7Lb2Zxw-75" value="Intranet" style="text;html=1;align=center;verticalAlign=middle;resizable=0;points=[];autosize=1;strokeColor=none;fillColor=none;" vertex="1" parent="1">
          <mxGeometry y="38" width="60" height="30" as="geometry" />
        </mxCell>
        <mxCell id="Spx9FryGJ42Kt7Lb2Zxw-76" value="FTP" style="text;html=1;align=center;verticalAlign=middle;resizable=0;points=[];autosize=1;strokeColor=none;fillColor=none;" vertex="1" parent="1">
          <mxGeometry x="157.5" y="38" width="50" height="30" as="geometry" />
        </mxCell>
        <mxCell id="Spx9FryGJ42Kt7Lb2Zxw-78" value="NTP/Syslog" style="text;html=1;align=center;verticalAlign=middle;resizable=0;points=[];autosize=1;strokeColor=none;fillColor=none;" vertex="1" parent="1">
          <mxGeometry x="285" y="28" width="90" height="30" as="geometry" />
        </mxCell>
        <mxCell id="Spx9FryGJ42Kt7Lb2Zxw-79" value="DHCP" style="text;html=1;align=center;verticalAlign=middle;resizable=0;points=[];autosize=1;strokeColor=none;fillColor=none;" vertex="1" parent="1">
          <mxGeometry x="430" y="28" width="60" height="30" as="geometry" />
        </mxCell>
        <mxCell id="Spx9FryGJ42Kt7Lb2Zxw-81" value="DNS" style="text;html=1;align=center;verticalAlign=middle;resizable=0;points=[];autosize=1;strokeColor=none;fillColor=none;" vertex="1" parent="1">
          <mxGeometry x="530" y="28" width="50" height="30" as="geometry" />
        </mxCell>
        <mxCell id="Spx9FryGJ42Kt7Lb2Zxw-82" value="G0/0/1" style="text;html=1;align=center;verticalAlign=middle;resizable=0;points=[];autosize=1;strokeColor=none;fillColor=none;" vertex="1" parent="1">
          <mxGeometry x="180" y="478" width="60" height="30" as="geometry" />
        </mxCell>
        <mxCell id="Spx9FryGJ42Kt7Lb2Zxw-83" value="Fa0/2" style="text;html=1;align=center;verticalAlign=middle;resizable=0;points=[];autosize=1;strokeColor=none;fillColor=none;" vertex="1" parent="1">
          <mxGeometry x="110" y="478" width="50" height="30" as="geometry" />
        </mxCell>
        <mxCell id="Spx9FryGJ42Kt7Lb2Zxw-85" value="" style="ellipse;shape=cloud;whiteSpace=wrap;html=1;" vertex="1" parent="1">
          <mxGeometry x="140" y="210" width="300" height="210" as="geometry" />
        </mxCell>
        <mxCell id="Spx9FryGJ42Kt7Lb2Zxw-91" value="" style="endArrow=none;html=1;rounded=0;entryX=0;entryY=1;entryDx=0;entryDy=0;" edge="1" parent="1" target="Spx9FryGJ42Kt7Lb2Zxw-47">
          <mxGeometry width="50" height="50" relative="1" as="geometry">
            <mxPoint x="128" y="720" as="sourcePoint" />
            <mxPoint x="178" y="670" as="targetPoint" />
          </mxGeometry>
        </mxCell>
        <mxCell id="Spx9FryGJ42Kt7Lb2Zxw-92" value="" style="endArrow=none;html=1;rounded=0;" edge="1" parent="1" target="Spx9FryGJ42Kt7Lb2Zxw-70">
          <mxGeometry width="50" height="50" relative="1" as="geometry">
            <mxPoint x="671.5" y="720" as="sourcePoint" />
            <mxPoint x="721.5" y="670" as="targetPoint" />
          </mxGeometry>
        </mxCell>
        <mxCell id="Spx9FryGJ42Kt7Lb2Zxw-93" value="G2/1" style="text;html=1;align=center;verticalAlign=middle;resizable=0;points=[];autosize=1;strokeColor=none;fillColor=none;" vertex="1" parent="1">
          <mxGeometry x="105" y="678" width="50" height="30" as="geometry" />
        </mxCell>
        <mxCell id="Spx9FryGJ42Kt7Lb2Zxw-94" value="G0/1" style="text;html=1;align=center;verticalAlign=middle;resizable=0;points=[];autosize=1;strokeColor=none;fillColor=none;" vertex="1" parent="1">
          <mxGeometry x="315" y="588" width="50" height="30" as="geometry" />
        </mxCell>
        <mxCell id="Spx9FryGJ42Kt7Lb2Zxw-95" value="G1/1" style="text;html=1;align=center;verticalAlign=middle;resizable=0;points=[];autosize=1;strokeColor=none;fillColor=none;" vertex="1" parent="1">
          <mxGeometry x="365" y="678" width="50" height="30" as="geometry" />
        </mxCell>
        <mxCell id="Spx9FryGJ42Kt7Lb2Zxw-96" value="G0/1" style="text;html=1;align=center;verticalAlign=middle;resizable=0;points=[];autosize=1;strokeColor=none;fillColor=none;" vertex="1" parent="1">
          <mxGeometry x="365" y="628" width="50" height="30" as="geometry" />
        </mxCell>
        <mxCell id="Spx9FryGJ42Kt7Lb2Zxw-97" value="G0/1" style="text;html=1;align=center;verticalAlign=middle;resizable=0;points=[];autosize=1;strokeColor=none;fillColor=none;" vertex="1" parent="1">
          <mxGeometry x="635" y="678" width="50" height="30" as="geometry" />
        </mxCell>
        <mxCell id="Spx9FryGJ42Kt7Lb2Zxw-98" value="G0/1" style="text;html=1;align=center;verticalAlign=middle;resizable=0;points=[];autosize=1;strokeColor=none;fillColor=none;" vertex="1" parent="1">
          <mxGeometry x="455" y="598" width="50" height="30" as="geometry" />
        </mxCell>
        <mxCell id="Spx9FryGJ42Kt7Lb2Zxw-99" value="1Gbps" style="text;html=1;align=center;verticalAlign=middle;resizable=0;points=[];autosize=1;strokeColor=none;fillColor=none;" vertex="1" parent="1">
          <mxGeometry x="45" y="180" width="60" height="30" as="geometry" />
        </mxCell>
        <mxCell id="Spx9FryGJ42Kt7Lb2Zxw-100" value="1Gbps" style="text;html=1;align=center;verticalAlign=middle;resizable=0;points=[];autosize=1;strokeColor=none;fillColor=none;" vertex="1" parent="1">
          <mxGeometry x="165" y="150" width="60" height="30" as="geometry" />
        </mxCell>
        <mxCell id="Spx9FryGJ42Kt7Lb2Zxw-101" value="1Gbps" style="text;html=1;align=center;verticalAlign=middle;resizable=0;points=[];autosize=1;strokeColor=none;fillColor=none;" vertex="1" parent="1">
          <mxGeometry x="270" y="143" width="60" height="30" as="geometry" />
        </mxCell>
        <mxCell id="Spx9FryGJ42Kt7Lb2Zxw-102" value="1Gbps" style="text;html=1;align=center;verticalAlign=middle;resizable=0;points=[];autosize=1;strokeColor=none;fillColor=none;" vertex="1" parent="1">
          <mxGeometry x="374" y="143" width="60" height="30" as="geometry" />
        </mxCell>
        <mxCell id="Spx9FryGJ42Kt7Lb2Zxw-103" value="1Gbps" style="text;html=1;align=center;verticalAlign=middle;resizable=0;points=[];autosize=1;strokeColor=none;fillColor=none;" vertex="1" parent="1">
          <mxGeometry x="535" y="150" width="60" height="30" as="geometry" />
        </mxCell>
        <mxCell id="Spx9FryGJ42Kt7Lb2Zxw-104" value="100mbps" style="text;html=1;align=center;verticalAlign=middle;resizable=0;points=[];autosize=1;strokeColor=none;fillColor=none;" vertex="1" parent="1">
          <mxGeometry x="205" y="678" width="70" height="30" as="geometry" />
        </mxCell>
        <mxCell id="Spx9FryGJ42Kt7Lb2Zxw-105" value="100mbps" style="text;html=1;align=center;verticalAlign=middle;resizable=0;points=[];autosize=1;strokeColor=none;fillColor=none;" vertex="1" parent="1">
          <mxGeometry x="400" y="648" width="70" height="30" as="geometry" />
        </mxCell>
        <mxCell id="Spx9FryGJ42Kt7Lb2Zxw-106" value="100mbps" style="text;html=1;align=center;verticalAlign=middle;resizable=0;points=[];autosize=1;strokeColor=none;fillColor=none;" vertex="1" parent="1">
          <mxGeometry x="535" y="640" width="70" height="30" as="geometry" />
        </mxCell>
        <mxCell id="Spx9FryGJ42Kt7Lb2Zxw-107" value="100mbps" style="text;html=1;align=center;verticalAlign=middle;resizable=0;points=[];autosize=1;strokeColor=none;fillColor=none;" vertex="1" parent="1">
          <mxGeometry x="350" y="520" width="70" height="30" as="geometry" />
        </mxCell>
        <mxCell id="Spx9FryGJ42Kt7Lb2Zxw-108" value="100mbps" style="text;html=1;align=center;verticalAlign=middle;resizable=0;points=[];autosize=1;strokeColor=none;fillColor=none;" vertex="1" parent="1">
          <mxGeometry x="295" y="438" width="70" height="30" as="geometry" />
        </mxCell>
        <mxCell id="Spx9FryGJ42Kt7Lb2Zxw-109" value="100mbps" style="text;html=1;align=center;verticalAlign=middle;resizable=0;points=[];autosize=1;strokeColor=none;fillColor=none;" vertex="1" parent="1">
          <mxGeometry x="145" y="430" width="70" height="30" as="geometry" />
        </mxCell>
        <mxCell id="Spx9FryGJ42Kt7Lb2Zxw-110" value="100mbps" style="text;html=1;align=center;verticalAlign=middle;resizable=0;points=[];autosize=1;strokeColor=none;fillColor=none;" vertex="1" parent="1">
          <mxGeometry x="55" y="380" width="70" height="30" as="geometry" />
        </mxCell>
        <mxCell id="Spx9FryGJ42Kt7Lb2Zxw-111" value="Fa0/1" style="text;html=1;align=center;verticalAlign=middle;resizable=0;points=[];autosize=1;strokeColor=none;fillColor=none;" vertex="1" parent="1">
          <mxGeometry x="10" y="430" width="50" height="30" as="geometry" />
        </mxCell>
        <mxCell id="Spx9FryGJ42Kt7Lb2Zxw-112" value="G0/0/1" style="text;html=1;align=center;verticalAlign=middle;resizable=0;points=[];autosize=1;strokeColor=none;fillColor=none;" vertex="1" parent="1">
          <mxGeometry x="60" y="318" width="60" height="30" as="geometry" />
        </mxCell>
      </root>
    </mxGraphModel>
  </diagram>
</mxfile>
